<svg width="34" height="34" viewBox="0 0 34 34" fill="none" xmlns="http://www.w3.org/2000/svg">
<path d="M15.0239 2.0633C15.6288 0.201558 18.2627 0.201555 18.8676 2.0633L21.4826 10.1115C21.7532 10.9441 22.529 11.5078 23.4045 11.5078H31.8669C33.8244 11.5078 34.6383 14.0128 33.0547 15.1634L26.2084 20.1375C25.5002 20.6521 25.2038 21.5642 25.4743 22.3968L28.0894 30.445C28.6943 32.3067 26.5634 33.8549 24.9797 32.7042L18.1335 27.7302C17.4253 27.2156 16.4662 27.2156 15.758 27.7302L8.91176 32.7042C7.32807 33.8549 5.19722 32.3067 5.80214 30.445L8.41716 22.3968C8.68769 21.5642 8.39133 20.6521 7.68308 20.1375L0.83686 15.1634C-0.746834 14.0128 0.0670728 11.5078 2.02463 11.5078H10.487C11.3625 11.5078 12.1383 10.9441 12.4089 10.1115L15.0239 2.0633Z" fill="#FFC30B"/>
</svg>
