<svg width="296" height="258" viewBox="0 0 296 258" fill="none" xmlns="http://www.w3.org/2000/svg">
<rect x="72.2656" y="53.2646" width="151.471" height="151.471" rx="75.7355" fill="#43AE0E"/>
<path d="M117.481 138.171C114.047 136.694 110.552 136.411 106.997 137.321C106.47 137.455 105.913 137.393 105.427 137.147C104.941 136.9 104.558 136.486 104.347 135.978C103.857 134.8 103.932 133.583 104.574 132.328C106.627 128.264 109.737 126.098 113.904 125.83C116.7 125.658 119.769 127.231 122.52 128.138C125.962 129.263 129.63 128.321 131.691 125.279C134.069 121.755 130.061 119.471 126.992 119.987C123.882 120.508 120.75 120.917 117.595 121.216C112.884 121.652 111.311 116.681 113.53 113.168C116.73 108.125 121.493 106.162 127.819 107.279C128.989 107.486 131.034 108.619 133.956 110.677C138.224 113.685 142.606 108.818 139.673 104.788C136.379 100.254 130.853 102.745 126.256 102.848C116.745 103.055 119.293 93.3204 124.037 89.3141C129.147 84.9978 135.473 84.1866 143.013 86.8804C150.992 89.7273 156.159 95.1112 158.514 103.032C159.091 105.007 160.846 106.889 163.009 105.5C171.508 100.051 179.174 100.686 186.005 107.406C191.383 112.686 193.761 121.193 194.836 128.849C195.153 131.092 194.98 133.066 194.315 134.773C192.504 139.434 187.964 139.939 184.431 136.92C181.698 134.578 179.34 131.876 177.354 128.815C174.365 124.223 170.233 123.236 165.353 125.647C165.143 125.751 164.965 125.912 164.841 126.112C164.717 126.313 164.65 126.544 164.649 126.78C164.647 127.016 164.712 127.247 164.834 127.447C164.957 127.646 165.133 127.806 165.341 127.908C174.218 132.316 179.687 140.719 179.325 150.66C179.087 156.917 171.92 158.891 167.085 157.927C162.669 157.055 164.085 152.761 164.787 149.868C165.59 146.539 162.782 143.945 160.212 142.464C159.965 142.322 159.684 142.253 159.4 142.266C159.116 142.279 158.842 142.373 158.608 142.538C158.375 142.702 158.192 142.93 158.082 143.196C157.971 143.461 157.936 143.752 157.982 144.037C159.601 154.012 158.842 165.469 149.977 171.588C146.965 173.665 140.613 175.123 137.749 171.863C134.658 168.339 138.802 165.79 140.285 162.921C140.987 161.558 141.202 160.12 140.93 158.604C140.726 157.479 140.3 156.519 139.651 155.723C138.375 154.154 137.277 154.277 136.356 156.09C129.744 169.116 118.738 173.788 103.34 170.107C103.057 170.043 102.81 169.872 102.65 169.628C102.49 169.384 102.429 169.087 102.479 168.798C102.962 166.035 102.977 163.242 102.524 160.418C101.505 154.104 101.766 141.925 110.948 141.879C113.258 141.867 116.893 141.523 117.832 138.986C117.968 138.603 117.851 138.331 117.481 138.171Z" fill="#FFE5B9"/>
<path d="M47.1017 170.549C47.2187 170.936 46.6356 171.056 46.3279 170.783C45.3632 169.92 41.2281 171.142 37.7458 172.195C34.2634 173.248 30.1745 174.344 29.8188 175.775C29.7139 176.172 29.162 176.395 29.045 176.009L27.0638 169.457C26.9468 169.07 27.5221 168.924 27.8377 169.223C28.8359 170.103 32.6537 168.949 36.0329 167.927L34.2389 161.994C30.8597 163.016 27.0444 164.085 26.6989 165.456C26.5939 165.854 26.042 166.077 25.925 165.69L23.9439 159.138C23.8269 158.751 24.4022 158.606 24.7177 158.904C25.7574 159.829 29.8175 158.545 33.2998 157.492C36.7822 156.439 40.8711 155.343 41.2268 153.912C41.3317 153.515 41.8836 153.292 42.0006 153.678L43.9818 160.231C44.0988 160.617 43.5157 160.737 43.2079 160.465C42.2846 159.646 38.4177 160.73 35.0127 161.76L36.8067 167.693C40.1859 166.671 44.0012 165.602 44.3467 164.231C44.4517 163.833 45.0036 163.61 45.1206 163.997L47.1017 170.549Z" fill="#43AE0E"/>
<path d="M37.0599 146.023C34.6136 146.196 33.5748 142.19 32.6875 140.334C31.8961 138.688 31.5598 136.983 29.993 136.985C28.0363 137.204 26.7206 137.702 26.8249 139.181C26.9272 140.632 28.7048 140.939 29.8392 141.318C30.8911 141.676 31.3492 142.428 31.4042 143.207C31.4762 144.229 30.7936 145.276 29.6415 145.412C26.8284 145.745 26.1586 141.227 26.0241 139.318C25.8024 136.173 26.9308 132.635 32.2265 132.262C34.5115 132.101 37.935 131.995 38.5987 130.678C38.7891 130.313 39.4036 130.216 39.5059 131.668C39.7125 134.598 38.7955 135.77 37.4798 136.268C38.9232 136.815 39.9512 137.985 40.0991 140.082C40.353 143.684 38.9954 145.887 37.0599 146.023ZM33.1933 139.461C33.8488 140.712 34.7753 141.592 36.8453 141.446C37.4904 141.4 39.2343 140.845 39.1168 139.178C38.9501 136.813 36.0434 136.586 34.2154 136.714C33.2745 136.781 32.3586 136.818 31.5253 136.877C32.191 137.505 32.6931 138.497 33.1933 139.461Z" fill="#43AE0E"/>
<path d="M26.9326 112.308C27.3452 109.454 29.2028 106.21 34.4571 106.97C36.7242 107.297 40.1189 107.924 41.0469 106.779C41.3104 106.463 41.9049 106.494 41.847 106.894L40.8676 113.669C40.8098 114.069 40.2307 113.931 40.0675 113.553C39.5588 112.363 36.0687 111.832 34.6551 111.627C33.0015 111.388 28.0454 110.073 27.6521 112.793C27.3243 115.06 29.6023 115.689 30.4253 115.835L33.1191 116.225C35.3862 116.552 38.7809 117.179 39.7089 116.034C39.9724 115.718 40.5669 115.749 40.509 116.149L39.5296 122.924C39.4718 123.324 38.8927 123.186 38.7295 122.808C38.2208 121.618 35.8509 121.249 34.4906 121.052L30.8633 120.527C29.4764 120.327 27.7312 120.156 26.9673 121.108C26.7038 121.424 26.136 121.396 26.1672 120.992L26.4461 116.05C26.485 115.592 26.8246 115.315 27.278 115.38L27.9448 115.477C27.2485 114.831 26.7128 113.828 26.9326 112.308Z" fill="#43AE0E"/>
<path d="M36.8416 96.9114C32.7915 95.3553 31.7221 91.4512 32.9497 88.2564C33.7712 86.1181 35.2879 85.4017 36.737 85.2368C35.8565 84.8985 35.1522 84.6279 34.8755 84.5215C33.0294 83.8411 31.2415 83.3851 30.3691 84.0026C29.9629 84.3085 29.4984 84.0145 29.6144 83.7127L30.9843 78.1187L43.7383 83.019C44.4678 83.2993 47.6684 84.5868 48.7729 83.7409C49.0998 83.4912 49.6977 83.6632 49.1758 85.0216C48.2769 87.3611 47.1048 88.3831 45.5879 88.3488C46.306 89.2599 46.9528 90.8075 46.1022 93.0212C44.778 96.4675 41.0929 98.5449 36.8416 96.9114ZM33.7527 88.4206C31.9549 93.0996 44.234 95.479 45.5679 92.0075C46.4957 89.5926 44.1735 88.1229 44.1831 88.0978C44.1077 88.0688 44.007 88.0301 43.9316 88.0011C43.5542 87.8561 41.4411 87.0442 39.328 86.2323C39.3029 86.2227 35.1638 84.7478 33.7527 88.4206Z" fill="#43AE0E"/>
<path d="M56.3464 80.4309C54.0926 80.7343 53.3137 78.7178 54.0918 77.5201C54.2827 77.2263 54.5413 76.9766 54.9209 76.8375C56.0517 76.3831 59.7316 77.8419 61.4053 75.2656C62.389 73.7515 61.9716 71.97 60.5027 71.0157C59.3728 70.2816 58.547 70.6129 58.0038 71.449C57.5193 72.1948 57.6665 73.2544 56.6241 74.8589C55.9488 75.8985 54.5945 77.0432 53.4871 76.3238C52.6058 75.7513 52.653 74.6893 52.8674 73.8645C50.9402 74.605 48.7033 74.4372 46.8728 73.248C43.7994 71.2513 42.9353 67.0907 44.9319 64.0173C44.976 63.9495 45.0347 63.8591 45.0787 63.7913C44.605 62.2945 44.9536 60.175 45.996 58.5705C47.8018 55.7908 50.699 58.0587 49.4951 59.9118C48.4674 61.4937 47.2064 60.4173 46.1934 61.9766C46.0465 62.2026 45.9382 62.5178 45.9269 62.8319C48.0854 60.7956 51.5039 60.3813 54.1254 62.0843C57.1762 64.0663 58.0776 68.219 56.0956 71.2698C55.4937 72.1964 54.6951 72.9309 53.7745 73.4576C53.6391 74.0123 53.5884 74.7828 54.1308 75.1352C54.8314 75.5903 55.5497 75.0287 55.9461 74.4185C57.0326 72.7462 57.0207 70.4889 58.3127 68.5003C59.4138 66.8054 61.2359 66.0288 62.5466 66.8803C65.1906 68.598 63.5074 73.514 62.0833 75.7061C60.9381 77.4687 58.4657 80.1367 56.3464 80.4309ZM44.6219 66.8688C44.4032 68.5906 47.1521 69.7016 50.1766 70.0918C52.8191 70.4267 55.3656 70.2171 56.1583 68.9968C56.2758 68.816 56.3334 68.6284 56.383 68.4036C56.6097 66.7191 53.8088 65.6386 50.799 65.2258C48.1711 64.8683 45.6247 65.0779 44.8466 66.2757C44.7292 66.4564 44.6569 66.6666 44.6219 66.8688Z" fill="#43AE0E"/>
<path d="M70.5197 54.9712C67.9269 57.6372 63.3029 58.1399 60.2505 55.1713C57.1401 52.1463 57.3449 47.684 59.825 45.1339C63.0002 41.869 66.851 43.321 68.5217 44.2315C69.0391 44.434 69.1232 45.0045 68.6723 45.4682L62.4908 51.8241C65.0057 53.1422 68.3719 54.0101 70.1944 52.1362C71.6599 50.6293 71.4434 48.7647 71.3007 48.0996C71.2396 47.8146 71.2939 47.6042 71.4254 47.469C71.6321 47.2565 71.9761 47.3279 72.1735 47.8207C72.7674 49.4133 72.7556 52.6723 70.5197 54.9712ZM61.7609 51.415L66.1011 46.9523C64.6054 46.2871 61.3493 45.1127 59.7898 46.7162C58.8128 47.7208 58.8883 49.0347 59.9508 50.0681C60.3758 50.4814 61.0112 50.949 61.7609 51.415Z" fill="#43AE0E"/>
<path d="M80.2308 44.317C79.8848 44.526 79.6243 43.9907 79.8127 43.625C80.41 42.477 79.1927 40.4102 78.482 39.2338L76.5866 36.0969C75.862 34.8975 74.8869 33.4401 73.6668 33.4531C73.2555 33.4497 72.9167 32.9932 73.2487 32.7611L77.2468 29.8417C77.6249 29.5817 78.055 29.6682 78.2919 30.0603L78.7518 30.8215C78.8225 29.7398 79.3409 28.5135 81.0017 27.5101C82.4779 26.6181 84.9579 26.0328 86.9724 27.3345C86.6076 25.9491 86.5927 24.1005 88.4379 22.9856C90.9059 21.4944 94.5921 20.873 97.3376 25.4169C98.5221 27.3775 100.205 30.4227 101.679 30.4135C102.09 30.4169 102.443 30.8964 102.097 31.1055L96.2383 34.6453C95.8923 34.8543 95.6318 34.319 95.8202 33.9533C96.4175 32.8053 94.601 29.7467 93.8624 28.5242C92.9983 27.0941 90.8718 22.4281 88.5422 23.8357C86.1203 25.299 88.4976 28.8689 88.4976 28.8689C88.5394 28.9381 88.5952 29.0303 88.637 29.0995L92.7203 35.8577C92.9572 36.2498 92.8476 36.6939 92.4555 36.9308L88.2345 39.4811C87.8885 39.6901 87.6281 39.1548 87.8164 38.7891C88.4137 37.6411 86.6112 34.6056 85.8725 33.3831C85.0085 31.953 82.882 27.287 80.6216 28.6528C78.2919 30.0603 80.0897 33.0358 80.0897 33.0358L81.344 35.1117C82.5285 37.0723 84.197 40.0944 85.6713 40.0852C86.0827 40.0886 86.4354 40.5681 86.0894 40.7772L80.2308 44.317Z" fill="#43AE0E"/>
<path d="M108.721 24.977C108.036 22.6222 111.732 20.7612 113.359 19.5023C114.801 18.3813 116.397 17.6926 116.064 16.1616C115.437 14.2952 114.672 13.1143 113.249 13.5282C111.852 13.9346 111.927 15.737 111.796 16.9259C111.668 18.0296 111.03 18.636 110.28 18.8543C109.296 19.1403 108.128 18.6942 107.753 17.5966C106.833 14.9171 111.109 13.3089 112.946 12.7745C115.973 11.894 119.669 12.2503 121.152 17.348C121.792 19.5475 122.618 22.8715 124.045 23.2423C124.442 23.3515 124.667 23.9316 123.269 24.338C120.449 25.1583 119.109 24.5095 118.345 23.3285C118.115 24.8547 117.188 26.1066 115.17 26.6936C111.702 27.7021 109.263 26.8401 108.721 24.977ZM114.319 19.8124C113.235 20.7171 112.57 21.8085 113.15 23.801C113.33 24.4221 114.241 26.0095 115.845 25.5429C118.123 24.8806 117.731 21.9914 117.22 20.2318C116.956 19.3261 116.726 18.4388 116.493 17.6366C116.019 18.4199 115.156 19.1199 114.319 19.8124Z" fill="#43AE0E"/>
<path d="M130.873 16.0002C130.514 11.6764 133.705 8.43613 137.438 8.12545C139.963 7.91534 142.116 8.43926 143.463 10.6528C144.369 12.1187 143.084 13.5778 141.634 13.6985C140.855 13.7633 139.991 13.4566 139.4 12.5322C138.284 10.8133 136.738 9.45473 135.502 9.55755C134.616 9.63131 133.864 10.3429 133.998 11.9543C134.268 15.2038 136.956 20.5238 140.313 20.2444C142.515 20.0611 143.522 18.517 143.851 17.9218C143.992 17.6666 144.171 17.5436 144.359 17.5279C144.655 17.5033 144.867 17.7831 144.693 18.2844C144.095 19.8755 141.973 22.3237 138.643 22.6008C135.098 22.8958 131.231 20.2971 130.873 16.0002Z" fill="#43AE0E"/>
<path d="M160.985 3.66297L160.198 9.86532C160.868 9.08109 161.949 8.48483 163.606 8.69524C166.226 9.02783 169.502 10.8291 168.833 16.0957C168.545 18.3681 167.977 21.7731 169.138 22.6812C169.459 22.9392 169.438 23.5341 169.037 23.4832L162.246 22.6212C161.845 22.5703 161.973 21.989 162.348 21.8192C163.529 21.29 164 17.7912 164.18 16.3743C164.39 14.7168 165.62 9.73864 163.053 9.41284C160.621 9.10402 160.025 11.446 159.896 12.2447L159.421 15.9875C159.268 17.1905 158.7 20.5955 159.862 21.5036C160.182 21.7616 160.161 22.3565 159.76 22.3056L152.969 21.4436C152.568 21.3927 152.696 20.8113 153.071 20.6416C154.252 20.1124 154.516 18.2444 154.703 16.774L155.836 7.84474C156.04 6.24068 156.114 4.37565 155.223 3.69206C154.902 3.43407 154.917 2.8926 155.325 2.89003L160.322 2.89959C160.783 2.90381 161.043 3.20849 160.985 3.66297Z" fill="#43AE0E"/>
<path d="M180.327 13.3532C180.096 13.2798 179.991 13.0767 180.064 12.8455C180.138 12.6144 180.341 12.5093 180.572 12.5827L181.163 12.7704C183.012 13.358 185.142 12.7058 185.95 10.1632C186.023 9.93202 186.27 9.86889 186.449 9.92602C186.655 9.99131 186.794 10.1768 186.72 10.408L185.529 14.1578L187.738 14.8596C187.969 14.9331 188.074 15.1361 188 15.3673C187.919 15.6241 187.724 15.7036 187.493 15.6301L185.284 14.9283L183.66 20.0393C182.966 22.2224 181.793 25.469 182.772 26.5717C183.041 26.8833 182.912 27.4646 181.757 27.0974C179.163 26.2731 177.466 24.405 178.217 22.0421L180.918 13.5409L180.327 13.3532Z" fill="#43AE0E"/>
<path d="M203.122 35.8335C202.802 35.5868 203.206 35.1501 203.616 35.1931C204.902 35.3338 206.387 33.4504 207.226 32.3617L209.463 29.4585C210.318 28.3484 211.323 26.9115 210.869 25.7791C210.723 25.3945 211.026 24.9133 211.363 25.1386L215.532 27.8071C215.912 28.0654 215.987 28.4976 215.707 28.8605L215.164 29.5649C216.198 29.2388 217.529 29.2776 219.066 30.4619C220.432 31.5146 221.877 33.614 221.393 35.9632C222.552 35.1213 224.27 34.4375 225.978 35.7533C228.262 37.5133 230.177 40.7238 226.936 44.9291C225.538 46.7436 223.31 49.4152 223.853 50.786C223.998 51.1706 223.679 51.6731 223.359 51.4264L217.937 47.2485C217.617 47.0018 218.021 46.5651 218.43 46.6081C219.717 46.7488 221.909 43.9475 222.781 42.8161C223.801 41.4926 227.379 37.8198 225.223 36.1586C222.982 34.4315 220.516 37.9408 220.516 37.9408C220.467 38.0049 220.401 38.0902 220.351 38.1543L215.532 44.409C215.252 44.7719 214.799 44.8307 214.436 44.551L210.53 41.541C210.209 41.2943 210.614 40.8576 211.023 40.9006C212.309 41.0413 214.485 38.2613 215.357 37.1299C216.377 35.8064 219.955 32.1337 217.863 30.5217C215.707 28.8605 213.585 31.6142 213.585 31.6142L212.105 33.5355C210.707 35.35 208.495 38.0002 209.038 39.3709C209.184 39.7555 208.864 40.2581 208.544 40.0114L203.122 35.8335Z" fill="#43AE0E"/>
<path d="M229.015 58.1553C228.759 57.8426 229.252 57.5086 229.64 57.643C230.862 58.0707 231.921 57.2376 232.984 56.3666L237.299 52.8313C238.258 52.0456 238.978 51.3512 238.813 50.1283C238.757 49.7207 239.161 49.3203 239.438 49.6159L242.897 53.1575C243.229 53.4777 243.205 53.9157 242.85 54.2061L235.867 59.9275C234.824 60.7814 233.759 61.4799 233.978 62.9378C234.034 63.3455 233.609 63.7629 233.353 63.4502L229.015 58.1553ZM242.524 51.5119C241.687 50.4905 241.834 49.0114 242.856 48.1745C243.877 47.3377 245.356 47.4846 246.193 48.506C247.03 49.5275 246.883 51.0066 245.862 51.8434C244.84 52.6803 243.361 52.5334 242.524 51.5119Z" fill="#43AE0E"/>
<path d="M248.87 63.2993C248.744 63.0922 248.798 62.87 249.005 62.7438C249.212 62.6177 249.434 62.6718 249.56 62.8789L249.883 63.4084C250.892 65.0657 252.926 65.9723 255.205 64.585C255.412 64.4589 255.64 64.573 255.738 64.7341C255.85 64.9182 255.833 65.1494 255.626 65.2756L252.265 67.3215L253.47 69.3011C253.596 69.5083 253.542 69.7305 253.335 69.8566C253.105 69.9968 252.906 69.9287 252.779 69.7215L251.574 67.7419L246.994 70.5306C245.037 71.7218 242.021 73.4004 242.035 74.8746C242.033 75.286 241.554 75.6403 240.924 74.6045C239.508 72.2796 239.455 69.7565 241.573 68.4672L249.192 63.8288L248.87 63.2993Z" fill="#43AE0E"/>
<path d="M250.696 95.2316C250.594 94.8403 251.182 94.7436 251.479 95.0286C252.455 96.0004 256.589 94.8722 260.11 93.9586C263.632 93.0451 267.78 92.0802 268.173 90.6976C268.294 90.3043 268.854 90.1033 268.956 90.4945L271.676 100.981C272.285 103.329 270.951 104.733 269.125 105.206C268.264 105.43 266.775 105.593 266.457 104.367C266.173 103.271 266.991 102.669 267.771 102.133C269.278 101.074 270.67 100.323 270.163 98.3666C269.588 96.2605 265.252 97.3578 261.808 98.251C262.333 99.2007 263.109 99.7233 263.908 99.9057C264.674 100.069 265.089 100.379 265.163 100.666C265.244 100.979 264.966 101.302 264.314 101.471L260.062 102.574C259.41 102.743 259.036 102.59 258.955 102.277C258.88 101.99 259.092 101.517 259.656 101.009C260.266 100.461 260.69 99.627 260.687 98.542C257.243 99.4353 252.92 100.585 253.468 102.698C253.982 104.68 255.666 105.051 257.497 105.244C258.439 105.334 259.447 105.462 259.731 106.557C260.049 107.783 258.669 108.364 257.808 108.588C255.982 109.061 254.032 108.092 253.423 105.744L250.696 95.2316Z" fill="#43AE0E"/>
<path d="M265.136 116.484C271.061 116.275 275.239 120.037 275.429 125.424C275.536 128.467 274.633 131.169 272.711 132.477C270.605 133.926 268.793 132.264 268.737 130.648C268.713 129.975 268.987 129.345 269.618 128.891C271.751 127.414 274.433 126.241 274.324 123.144C274.241 120.801 272.254 119.522 269.4 119.623C265.764 119.751 257.721 123.378 257.887 128.091C257.966 130.327 259.545 132.294 260.979 133.187C261.227 133.34 261.342 133.552 261.349 133.74C261.362 134.117 260.97 134.455 260.367 134.179C258.614 133.405 255.649 130.382 255.499 126.126C255.309 120.74 259.211 116.692 265.136 116.484Z" fill="#43AE0E"/>
<path d="M253.47 151.028C254.551 145.748 259.295 142.731 265.104 143.92C270.912 145.11 274.088 149.749 273.007 155.029C271.925 160.309 267.181 163.326 261.373 162.137C255.565 160.947 252.389 156.308 253.47 151.028ZM272.285 151.03C271.404 147.273 266.012 147.545 262.202 148.415C258.938 149.177 254.793 150.749 254.225 153.521C254.128 153.996 254.136 154.493 254.271 155.043C255.147 158.826 260.497 158.491 264.274 157.642C267.533 156.906 271.737 155.319 272.31 152.52C272.407 152.045 272.399 151.548 272.285 151.03Z" fill="#43AE0E"/>
<path d="M258.158 170.599C258.53 170.756 258.674 171.109 258.518 171.481L255.609 178.414C255.452 178.787 255.099 178.931 254.727 178.775C254.354 178.618 254.21 178.266 254.366 177.893L257.276 170.96C257.432 170.587 257.785 170.443 258.158 170.599Z" fill="#43AE0E"/>
<path d="M243.211 182.342C243.441 182.01 243.898 182.392 243.875 182.803C243.771 184.371 246.884 186.597 250.139 188.855C253.394 191.114 256.613 193.282 258.045 192.636C258.422 192.471 258.94 192.765 258.709 193.097L255.483 197.746C255.344 197.946 255.126 198.024 254.888 197.989L243.144 195.154L249.881 205.11C250.034 205.315 250.029 205.606 249.89 205.805L246.956 210.034C246.725 210.366 246.254 210.006 246.292 209.573C246.37 208.184 242.841 205.801 239.852 203.727C236.863 201.653 233.464 199.13 232.122 199.741C231.745 199.905 231.227 199.612 231.458 199.28L235.36 193.656C235.59 193.324 236.047 193.706 236.024 194.117C235.948 195.409 239.475 197.889 242.464 199.963L247.047 203.143L241.343 194.724L238.514 190.104C238.318 189.772 238.426 189.617 238.753 189.712L253.853 193.335C252.654 192.274 251.031 191.115 249.371 189.963C246.116 187.704 242.941 185.567 241.509 186.213C241.132 186.378 240.614 186.084 240.845 185.752L243.211 182.342Z" fill="#43AE0E"/>
<path d="M228.298 207.823C229.928 209.656 227.389 212.924 226.461 214.76C225.64 216.391 224.494 217.699 225.453 218.938C226.82 220.354 228.018 221.092 229.126 220.107C230.213 219.14 229.371 217.545 228.979 216.415C228.621 215.363 228.936 214.542 229.52 214.022C230.285 213.342 231.531 213.243 232.342 214.073C234.323 216.098 231.153 219.386 229.723 220.658C227.367 222.753 223.876 224.019 220.348 220.052C218.826 218.34 216.652 215.694 215.204 215.972C214.799 216.043 214.347 215.616 215.434 214.649C217.629 212.697 219.117 212.707 220.315 213.445C219.867 211.969 220.166 210.44 221.737 209.043C224.435 206.643 227.009 206.374 228.298 207.823ZM225.46 214.892C226.051 213.609 226.182 212.338 224.803 210.788C224.373 210.304 222.869 209.262 221.621 210.372C219.849 211.948 221.443 214.39 222.661 215.759C223.288 216.464 223.877 217.166 224.432 217.79C224.523 216.879 225.002 215.877 225.46 214.892Z" fill="#43AE0E"/>
<path d="M215.276 230.349C215.482 230.221 215.704 230.273 215.832 230.48C215.96 230.686 215.908 230.908 215.701 231.036L215.175 231.363C213.525 232.385 212.635 234.427 214.041 236.695C214.168 236.901 214.056 237.129 213.896 237.228C213.713 237.342 213.481 237.327 213.353 237.12L211.281 233.776L209.311 234.997C209.105 235.125 208.882 235.073 208.754 234.867C208.612 234.637 208.679 234.438 208.885 234.31L210.855 233.089L208.029 228.531C206.823 226.584 205.12 223.581 203.646 223.607C203.235 223.608 202.876 223.133 203.907 222.494C206.221 221.06 208.743 220.986 210.049 223.094L214.749 230.675L215.276 230.349Z" fill="#43AE0E"/>
<path d="M188.767 229.517C192.21 228.112 196.649 229.502 198.257 233.444C199.896 237.462 197.922 241.469 194.629 242.813C190.412 244.533 187.465 241.661 186.298 240.158C185.905 239.765 186.056 239.209 186.655 238.964L194.864 235.615C193.087 233.4 190.35 231.257 187.93 232.245C185.984 233.039 185.436 234.834 185.3 235.501C185.242 235.786 185.108 235.957 184.933 236.029C184.659 236.141 184.372 235.938 184.389 235.407C184.482 233.71 185.798 230.728 188.767 229.517ZM195.369 236.282L189.606 238.634C190.71 239.842 193.224 242.222 195.294 241.377C196.592 240.847 197.049 239.613 196.489 238.241C196.265 237.692 195.87 237.009 195.369 236.282Z" fill="#43AE0E"/>
<path d="M177.923 247.236C178.308 247.381 178.469 247.926 178.078 248.03L173.319 249.394C172.875 249.508 172.5 249.279 172.413 248.829L171.94 246.396C171.489 248.597 169.785 250.137 167.589 250.564C163.356 251.387 163.106 246.851 165.883 246.311C167.867 245.925 168.261 248.511 169.663 248.239C171.382 247.904 171.445 243.994 171.42 243.724L171.286 243.036C170.849 240.788 170.323 237.376 168.936 236.877C168.551 236.732 168.385 236.161 168.781 236.083L175.5 234.777C175.897 234.7 175.957 235.292 175.655 235.57C174.699 236.443 175.13 238.802 175.393 240.151L176.092 243.749C176.36 245.124 176.773 246.828 177.923 247.236Z" fill="#43AE0E"/>
<path d="M154.609 237.988C155.014 237.978 154.974 238.572 154.629 238.796C153.541 239.497 153.548 240.845 153.581 242.219L153.719 247.795C153.749 249.035 153.855 250.029 154.921 250.65C155.277 250.857 155.345 251.422 154.941 251.458L150.022 252.011C149.565 252.076 149.235 251.788 149.223 251.33L149.001 242.305C148.968 240.958 149.071 239.688 147.786 238.965C147.431 238.758 147.362 238.167 147.767 238.157L154.609 237.988ZM151.549 252.728C152.869 252.696 153.946 253.72 153.978 255.04C154.011 256.361 152.986 257.437 151.666 257.47C150.346 257.502 149.269 256.477 149.237 255.157C149.204 253.837 150.229 252.761 151.549 252.728Z" fill="#43AE0E"/>
<path d="M139.674 241.577C139.314 244.003 135.178 244.152 133.174 244.617C131.396 245.034 129.658 244.994 129.322 246.524C129.113 248.482 129.315 249.874 130.781 250.092C132.22 250.306 132.904 248.636 133.52 247.611C134.097 246.661 134.929 246.376 135.702 246.491C136.715 246.641 137.59 247.534 137.473 248.688C137.191 251.507 132.635 251.184 130.742 250.903C127.623 250.44 124.413 248.574 125.193 243.322C125.53 241.057 126.166 237.691 125.024 236.759C124.709 236.494 124.747 235.873 126.186 236.087C129.092 236.518 130.038 237.667 130.24 239.059C131.086 237.768 132.45 237.017 134.53 237.326C138.102 237.857 139.959 239.658 139.674 241.577ZM132.431 243.934C133.794 243.565 134.853 242.85 135.158 240.798C135.253 240.158 135.088 238.335 133.435 238.09C131.09 237.741 130.239 240.53 129.97 242.343C129.832 243.276 129.67 244.178 129.548 245.005C130.305 244.49 131.381 244.214 132.431 243.934Z" fill="#43AE0E"/>
<path d="M117.747 233.903C118.131 234.028 117.897 234.575 117.497 234.672C116.237 234.97 115.627 236.755 115.168 238.165L112.381 246.723C111.88 248.26 111.458 250.078 112.205 250.917C112.471 251.231 112.355 251.76 111.954 251.686L107.048 250.739C106.595 250.649 106.397 250.301 106.539 249.865L110.387 238.052C110.762 236.899 111.959 233.661 110.988 232.552C110.722 232.238 110.854 231.658 111.239 231.783L117.747 233.903Z" fill="#43AE0E"/>
<path d="M104.484 229.125C104.848 229.301 104.542 229.811 104.133 229.853C102.845 229.979 102.235 231.181 101.637 232.419L99.212 237.442C98.673 238.558 98.3123 239.492 98.9775 240.531C99.1993 240.877 99.0018 241.41 98.626 241.259L93.9975 239.503C93.5615 239.352 93.3991 238.945 93.5983 238.532L97.5234 230.402C98.1092 229.189 98.7813 228.107 97.9687 226.877C97.747 226.53 97.9562 225.973 98.3202 226.149L104.484 229.125ZM95.0284 240.839C96.2176 241.413 96.7071 242.816 96.133 244.005C95.5588 245.195 94.1554 245.684 92.9663 245.11C91.7771 244.536 91.2876 243.132 91.8617 241.943C92.4358 240.754 93.8393 240.265 95.0284 240.839Z" fill="#43AE0E"/>
<path d="M85.7281 217.839C88.7609 219.991 89.968 224.483 87.5036 227.955C84.9924 231.494 80.5516 231.977 77.6508 229.918C73.9368 227.282 74.7799 223.254 75.4229 221.463C75.5435 220.921 76.0943 220.75 76.6218 221.124L83.852 226.256C84.768 223.568 85.1084 220.109 82.9767 218.596C81.2626 217.379 79.4534 217.88 78.8182 218.123C78.5459 218.227 78.3297 218.206 78.1759 218.097C77.9341 217.925 77.9519 217.574 78.4084 217.303C79.8908 216.472 83.113 215.983 85.7281 217.839ZM83.5598 227.04L78.4833 223.437C78.0558 225.017 77.3956 228.415 79.2196 229.71C80.3624 230.521 81.6491 230.244 82.507 229.036C82.8501 228.552 83.2146 227.852 83.5598 227.04Z" fill="#43AE0E"/>
<path d="M57.9111 212.612C55.9578 210.491 54.6137 207.003 58.5189 203.406C60.2039 201.855 62.8325 199.617 62.5296 198.174C62.4508 197.77 62.8504 197.329 63.1243 197.626L67.7613 202.661C68.0351 202.959 67.5625 203.321 67.1666 203.209C65.9225 202.853 63.3074 205.225 62.2568 206.192C61.0277 207.324 56.8795 210.338 58.7416 212.36C60.2933 214.045 62.2188 212.675 62.8516 212.129L64.8537 210.285C66.5387 208.733 69.1673 206.496 68.8644 205.053C68.7856 204.649 69.1852 204.208 69.4591 204.505L74.096 209.54C74.3699 209.838 73.8973 210.199 73.5014 210.088C72.2573 209.731 70.4748 211.336 69.4638 212.267L66.7678 214.75C65.737 215.7 64.5033 216.946 64.7593 218.139C64.838 218.542 64.4583 218.965 64.1646 218.686L60.5066 215.351C60.1764 215.032 60.1754 214.593 60.5124 214.283L61.008 213.827C60.068 213.96 58.9517 213.742 57.9111 212.612Z" fill="#43AE0E"/>
</svg>
