<svg width="833" height="312" viewBox="0 0 833 312" fill="none" xmlns="http://www.w3.org/2000/svg">
<path d="M1.8976 8.96552C-0.448824 7.53103 -0.809813 3.5862 1.8976 3.5862H57.1288C79.3296 3.5862 105.682 8.78621 105.682 33.531C105.682 49.4897 93.2277 57.9172 80.0516 61.6828C97.1985 65.4483 114.706 74.0552 114.706 93.0621C114.706 122.11 86.3689 129.103 57.1288 129.103H1.8976C-0.809813 129.103 -0.448824 125.159 1.8976 123.724C9.11737 119.421 9.11737 94.8552 9.11737 66.7035C9.11737 38.5517 10.0198 13.8069 1.8976 8.96552ZM39.8014 64.5517C39.8014 65.0897 39.8014 65.8069 39.8014 66.3448C39.8014 94.4966 38.3574 123.724 57.1288 123.724C74.6368 123.724 84.0225 107.407 84.0225 94.8552C84.0225 70.6483 71.2074 64.9103 39.8014 64.5517ZM57.1288 8.96552C38.8989 8.96552 39.6209 33.3517 39.8014 59.1724C66.5145 58.8138 74.9977 52 74.9977 34.2483C74.9977 21.5172 69.9439 8.96552 57.1288 8.96552Z" fill="#351010"/>
<path d="M118.391 129.103C115.684 129.103 115.503 125.159 118.391 123.724C129.401 118.345 141.855 90.5517 149.617 69.5724C161.168 38.5517 171.456 12.1931 162.612 8.96552C159.183 7.71034 159.905 3.5862 162.612 3.5862H191.672C194.018 3.5862 196.184 5.2 196.906 7.53103C201.418 20.6207 213.692 54.1517 218.204 66.3448C227.049 90.5517 237.878 119.241 246.903 123.724C249.791 125.159 249.61 129.103 246.903 129.103H203.043C200.335 129.103 200.335 125.159 203.043 123.724C207.194 121.572 203.043 108.124 197.267 92.3448H149.797C144.021 107.407 139.509 121.214 144.202 123.724C146.909 125.159 146.909 129.103 144.202 129.103H118.391ZM158.641 69.5724C157.197 73.8759 155.212 78.5379 153.407 83.3793H193.838C186.979 65.269 180.481 47.1586 173.983 28.869C168.207 40.8828 163.515 55.9448 158.641 69.5724Z" fill="#351010"/>
<path d="M257.304 129.103C254.597 129.103 254.957 125.159 257.304 123.724C265.246 119.062 264.885 90.5517 264.885 66.3448C264.885 42.1379 265.607 13.8069 257.304 8.96552C254.957 7.53103 254.597 3.5862 257.304 3.5862H303.149C305.857 3.5862 305.857 7.35173 303.149 8.96552C295.208 13.9862 295.569 42.1379 295.569 66.3448C295.569 90.5517 295.027 123.724 310.369 123.724C321.199 123.724 322.823 109.917 326.433 100.414C329.321 92.5241 332.39 86.2483 339.609 86.2483C346.288 86.2483 349.536 92.5241 349.536 98.2621C349.536 120.676 348.453 129.103 336.18 129.103H257.304Z" fill="#351010"/>
<path d="M357.052 129.103C354.345 129.103 354.164 125.159 357.052 123.724C368.062 118.345 380.517 90.5517 388.278 69.5724C399.829 38.5517 410.118 12.1931 401.273 8.96552C397.844 7.71034 398.566 3.5862 401.273 3.5862H430.333C432.679 3.5862 434.845 5.2 435.567 7.53103C440.08 20.6207 452.353 54.1517 456.866 66.3448C465.71 90.5517 476.54 119.241 485.564 123.724C488.452 125.159 488.272 129.103 485.564 129.103H441.704C438.997 129.103 438.997 125.159 441.704 123.724C445.855 121.572 441.704 108.124 435.928 92.3448H388.458C382.683 107.407 378.17 121.214 382.863 123.724C385.57 125.159 385.57 129.103 382.863 129.103H357.052ZM397.303 69.5724C395.859 73.8759 393.873 78.5379 392.068 83.3793H432.499C425.64 65.269 419.142 47.1586 412.645 28.869C406.869 40.8828 402.176 55.9448 397.303 69.5724Z" fill="#351010"/>
<path d="M495.965 129.103C493.258 129.103 493.619 125.159 495.965 123.724C504.99 118.345 505.351 92.8828 505.351 66.5241C505.351 40.1655 504.99 14.3448 495.965 8.96552C493.619 7.53103 493.258 3.5862 495.965 3.5862H523.942C525.566 3.5862 527.191 4.48275 528.093 5.91724L586.032 102.207C587.295 91.9862 587.295 79.9724 587.295 69.5724C587.295 48.5931 586.934 14.3448 577.91 8.96552C575.563 7.53103 575.202 3.5862 577.91 3.5862H602.096C604.803 3.5862 604.623 7.53103 602.096 8.96552C593.071 14.3448 592.71 48.5931 592.71 69.5724C592.71 90.5517 593.613 117.448 600.11 121.393C604.623 124.262 602.818 129.103 600.11 129.103H574.3C572.675 129.103 571.051 128.207 570.148 126.772L512.029 30.3035C510.766 40.7034 510.766 53.6138 510.766 66.5241C510.766 92.8828 511.127 118.345 520.151 123.724C522.498 125.159 522.859 129.103 520.151 129.103H495.965Z" fill="#351010"/>
<path d="M608.946 66.3448C608.946 26.8965 635.118 0 671.217 0C691.612 0 709.481 6.63448 717.784 19.7241C726.989 34.069 715.438 45.7241 704.608 45.7241C700.096 45.7241 695.944 43.7517 693.056 39.4483C683.671 24.9241 676.451 6.81379 655.694 6.81379C639.991 6.81379 630.966 19.7241 630.966 38.731C630.966 62.9379 653.348 117.269 684.934 117.269C699.915 117.269 713.452 107.228 719.77 97.9035C720.853 96.2897 722.296 95.5724 723.56 95.5724C726.087 95.5724 728.253 98.2621 726.267 102.207C720.672 113.683 699.735 132.69 671.217 132.69C635.118 132.69 608.946 105.793 608.946 66.3448Z" fill="#351010"/>
<path d="M734.45 129.103C731.743 129.103 732.104 125.159 734.45 123.724C742.392 119.062 742.031 90.5517 742.031 66.3448C742.031 42.1379 742.753 13.8069 734.45 8.96552C732.104 7.53103 731.743 3.5862 734.45 3.5862H807.009C823.253 3.5862 830.112 14.5241 830.112 27.0759C830.112 32.9931 828.668 42.8552 820.185 42.8552C812.604 42.8552 810.077 36.5793 807.911 30.6621C803.579 19.1862 801.053 8.96552 787.515 8.96552C772.895 9.14483 772.715 38.9103 772.715 62.5793C779.754 60.7862 784.447 56.6621 786.974 51.8207C789.32 47.1586 792.028 45.0069 794.013 45.0069C796.179 45.0069 797.804 47.3379 797.804 51.8207V81.0483C797.804 85.531 796.179 87.6828 794.013 87.6828C792.028 87.6828 789.32 85.531 786.974 81.0483C784.447 76.2069 779.754 72.0828 772.715 70.2897C772.715 93.9586 772.895 123.724 787.515 123.724C801.233 123.724 806.467 113.503 810.799 102.028C812.965 96.1103 815.492 89.8345 823.073 89.8345C831.556 89.8345 833 99.6966 833 105.614C833 118.166 823.434 129.103 807.189 129.103H734.45Z" fill="#351010"/>
<path d="M1.8976 188.276C-0.448824 186.841 -0.809813 182.897 1.8976 182.897H57.1288C79.3296 182.897 105.682 188.097 105.682 212.841C105.682 228.8 93.2277 237.228 80.0516 240.993C97.1985 244.759 114.706 253.366 114.706 272.372C114.706 301.421 86.3689 308.414 57.1288 308.414H1.8976C-0.809813 308.414 -0.448824 304.469 1.8976 303.034C9.11737 298.731 9.11737 274.166 9.11737 246.014C9.11737 217.862 10.0198 193.117 1.8976 188.276ZM39.8014 243.862C39.8014 244.4 39.8014 245.117 39.8014 245.655C39.8014 273.807 38.3574 303.034 57.1288 303.034C74.6368 303.034 84.0225 286.717 84.0225 274.165C84.0225 249.959 71.2074 244.221 39.8014 243.862ZM57.1288 188.276C38.8989 188.276 39.6209 212.662 39.8014 238.483C66.5145 238.124 74.9977 231.31 74.9977 213.559C74.9977 200.828 69.9439 188.276 57.1288 188.276Z" fill="#351010"/>
<path d="M182.789 312C146.691 312 120.519 285.103 120.519 245.655C120.519 206.207 146.691 179.31 182.789 179.31C218.888 179.31 245.06 206.207 245.06 245.655C245.06 285.103 218.888 312 182.789 312ZM157.52 189.352C134.056 200.11 143.081 234.897 153.91 258.566C163.296 278.828 179.18 303.752 198.131 303.752C201.38 303.752 204.629 303.034 208.059 301.421C231.703 290.662 222.318 256.234 211.669 232.745C202.463 212.483 186.399 187.2 167.267 187.2C164.018 187.2 160.769 187.917 157.52 189.352Z" fill="#351010"/>
<path d="M242.657 308.414C239.95 308.414 239.769 304.469 242.657 303.034C253.667 297.655 266.121 269.862 273.883 248.883C285.434 217.862 295.722 191.503 286.878 188.276C283.449 187.021 284.171 182.897 286.878 182.897H315.938C318.284 182.897 320.45 184.51 321.172 186.841C325.684 199.931 337.958 233.462 342.47 245.655C351.315 269.862 362.144 298.552 371.169 303.034C374.057 304.469 373.876 308.414 371.169 308.414H327.309C324.601 308.414 324.601 304.469 327.309 303.034C331.46 300.883 327.309 287.434 321.533 271.655H274.063C268.287 286.717 263.775 300.524 268.468 303.034C271.175 304.469 271.175 308.414 268.468 308.414H242.657ZM282.907 248.883C281.463 253.186 279.478 257.848 277.673 262.69H318.104C311.245 244.579 304.747 226.469 298.249 208.179C292.474 220.193 287.781 235.255 282.907 248.883Z" fill="#351010"/>
<path d="M381.57 188.276C379.224 186.841 378.863 182.897 381.57 182.897H436.801C459.002 182.897 485.354 191.683 485.354 217.324C485.354 237.945 458.641 251.931 445.465 251.931H439.689C460.987 251.931 470.373 258.745 480.481 277.393C489.145 293.531 492.935 300.524 499.974 302.497C503.764 303.572 503.223 308.414 499.613 308.414H458.099C455.392 308.414 455.392 304.648 457.919 303.034C461.89 300.524 456.114 287.076 453.587 281.697C446.367 266.814 442.216 253.545 425.25 253.545H419.474C419.654 275.6 420.376 298.552 427.415 303.034C430.123 304.648 430.123 308.414 427.415 308.414H381.57C378.863 308.414 379.224 304.469 381.57 303.034C389.151 298.552 388.79 269.862 388.79 245.655C388.79 221.448 389.873 193.117 381.57 188.276ZM436.801 188.276C416.225 188.276 419.474 221.448 419.474 245.655C419.474 246.552 419.474 247.269 419.474 248.166C444.562 247.628 454.67 238.662 454.67 218.4C454.67 200.469 448.172 188.276 436.801 188.276Z" fill="#351010"/>
<path d="M511.653 308.414C508.945 308.414 509.306 304.469 511.653 303.034C518.872 298.731 518.872 274.166 518.872 246.014C518.872 217.862 519.775 193.117 511.653 188.276C509.306 186.841 508.945 182.897 511.653 182.897H566.884C604.066 182.897 627.53 208.538 627.53 245.117C627.53 281.697 604.427 308.414 566.884 308.414H511.653ZM566.884 188.276C547.03 188.276 549.556 217.503 549.556 245.655C549.556 273.807 548.112 303.034 566.884 303.034C585.294 303.034 596.846 281.697 596.846 245.834C596.846 209.972 585.294 188.276 566.884 188.276Z" fill="#351010"/>
</svg>
