<svg width="195" height="34" viewBox="0 0 195 34" fill="none" xmlns="http://www.w3.org/2000/svg">
<path d="M15.0239 2.0633C15.6288 0.201558 18.2627 0.201555 18.8676 2.0633L21.4826 10.1115C21.7532 10.9441 22.529 11.5078 23.4045 11.5078H31.8669C33.8244 11.5078 34.6383 14.0128 33.0547 15.1634L26.2084 20.1375C25.5002 20.6521 25.2038 21.5642 25.4743 22.3968L28.0894 30.445C28.6943 32.3067 26.5634 33.8549 24.9797 32.7042L18.1335 27.7302C17.4253 27.2156 16.4662 27.2156 15.758 27.7302L8.91176 32.7042C7.32807 33.8549 5.19722 32.3067 5.80214 30.445L8.41716 22.3968C8.68769 21.5642 8.39133 20.6521 7.68308 20.1375L0.83686 15.1634C-0.746834 14.0128 0.0670728 11.5078 2.02463 11.5078H10.487C11.3625 11.5078 12.1383 10.9441 12.4089 10.1115L15.0239 2.0633Z" fill="#FFC30B"/>
<path d="M54.8588 2.0633C55.4637 0.201558 58.0976 0.201555 58.7025 2.0633L61.3175 10.1115C61.5881 10.9441 62.3639 11.5078 63.2394 11.5078H71.7018C73.6593 11.5078 74.4732 14.0128 72.8896 15.1634L66.0433 20.1375C65.3351 20.6521 65.0387 21.5642 65.3092 22.3968L67.9243 30.445C68.5292 32.3067 66.3983 33.8549 64.8146 32.7042L57.9684 27.7302C57.2602 27.2156 56.3011 27.2156 55.5929 27.7302L48.7467 32.7042C47.163 33.8549 45.0321 32.3067 45.637 30.445L48.2521 22.3968C48.5226 21.5642 48.2262 20.6521 47.518 20.1375L40.6718 15.1634C39.0881 14.0128 39.902 11.5078 41.8595 11.5078H50.3219C51.1974 11.5078 51.9732 10.9441 52.2438 10.1115L54.8588 2.0633Z" fill="#FFC30B"/>
<path d="M94.6937 2.0633C95.2986 0.201558 97.9325 0.201555 98.5374 2.0633L101.152 10.1115C101.423 10.9441 102.199 11.5078 103.074 11.5078H111.537C113.494 11.5078 114.308 14.0128 112.724 15.1634L105.878 20.1375C105.17 20.6521 104.874 21.5642 105.144 22.3968L107.759 30.445C108.364 32.3067 106.233 33.8549 104.65 32.7042L97.8033 27.7302C97.0951 27.2156 96.136 27.2156 95.4278 27.7302L88.5816 32.7042C86.9979 33.8549 84.867 32.3067 85.4719 30.445L88.087 22.3968C88.3575 21.5642 88.0611 20.6521 87.3529 20.1375L80.5067 15.1634C78.923 14.0128 79.7369 11.5078 81.6944 11.5078H90.1568C91.0323 11.5078 91.8081 10.9441 92.0787 10.1115L94.6937 2.0633Z" fill="#FFC30B"/>
<path d="M134.529 2.0633C135.134 0.201558 137.767 0.201555 138.372 2.0633L140.987 10.1115C141.258 10.9441 142.034 11.5078 142.909 11.5078H151.372C153.329 11.5078 154.143 14.0128 152.559 15.1634L145.713 20.1375C145.005 20.6521 144.709 21.5642 144.979 22.3968L147.594 30.445C148.199 32.3067 146.068 33.8549 144.484 32.7042L137.638 27.7302C136.93 27.2156 135.971 27.2156 135.263 27.7302L128.416 32.7042C126.833 33.8549 124.702 32.3067 125.307 30.445L127.922 22.3968C128.192 21.5642 127.896 20.6521 127.188 20.1375L120.342 15.1634C118.758 14.0128 119.572 11.5078 121.529 11.5078H129.992C130.867 11.5078 131.643 10.9441 131.914 10.1115L134.529 2.0633Z" fill="#FFC30B"/>
<path d="M175.287 2.33869C175.892 0.476949 178.526 0.476945 179.131 2.33869L181.746 10.3869C182.017 11.2195 182.793 11.7832 183.668 11.7832H192.13C194.088 11.7832 194.902 14.2882 193.318 15.4388L186.472 20.4129C185.764 20.9274 185.467 21.8395 185.738 22.6721L188.353 30.7204C188.958 32.5821 186.827 34.1303 185.243 32.9796L178.397 28.0056C177.689 27.491 176.73 27.491 176.022 28.0056L169.175 32.9796C167.592 34.1303 165.461 32.5821 166.066 30.7204L168.681 22.6721C168.951 21.8395 168.655 20.9274 167.947 20.4129L161.1 15.4388C159.517 14.2882 160.331 11.7832 162.288 11.7832H170.751C171.626 11.7832 172.402 11.2195 172.672 10.3869L175.287 2.33869Z" fill="#D9D9D9"/>
<path d="M169.175 32.9792L176.022 28.0052C176.354 27.7635 176.742 27.6353 177.134 27.6207V0.943359C176.35 0.971499 175.58 1.43648 175.287 2.33831L172.672 10.3865C172.402 11.2191 171.626 11.7828 170.751 11.7828H162.288C160.331 11.7828 159.517 14.2878 161.1 15.4384L167.947 20.4125C168.655 20.9271 168.951 21.8392 168.681 22.6718L166.066 30.72C165.461 32.5817 167.592 34.1299 169.175 32.9792Z" fill="#FFC30B"/>
</svg>
