<svg xmlns="http://www.w3.org/2000/svg" width="1592" height="373" fill="none"><rect id="backgroundrect" width="100%" height="100%" x="0" y="0" fill="none" stroke="none"/>

























<g class="currentLayer" style=""><title>Layer 1</title><path d="M2.0930438690185547,129.59960174560547 C-0.6069561309814446,129.59960174560547 -0.7869561309814443,125.63960174560546 2.0930438690185547,124.19960174560546 C13.073043869018555,118.79960174560546 25.493043869018557,90.89960174560548 33.23304386901855,69.83960174560548 C44.753043869018555,38.69960174560546 55.01304386901856,12.240001745605468 46.19304386901855,9.000001745605474 C42.77304386901855,7.740001745605468 43.49304386901855,3.600001745605468 46.19304386901855,3.600001745605468 H75.17304386901856 C77.51304386901856,3.600001745605468 79.67304386901856,5.220001745605472 80.39304386901856,7.560001745605476 C84.89304386901856,20.700001745605462 97.13304386901855,54.359601745605474 101.63304386901855,66.59960174560547 C110.45304386901856,90.89960174560548 121.25304386901854,119.69960174560546 130.25304386901854,124.19960174560546 C133.13304386901856,125.63960174560546 132.95304386901856,129.59960174560547 130.25304386901854,129.59960174560547 H86.51304386901856 C83.81304386901856,129.59960174560547 83.81304386901856,125.63960174560546 86.51304386901856,124.19960174560546 C90.65304386901856,122.03960174560547 86.51304386901856,108.53960174560547 80.75304386901855,92.69960174560546 H33.41304386901855 C27.653043869018553,107.81960174560547 23.153043869018553,121.67960174560548 27.833043869018553,124.19960174560546 C30.533043869018556,125.63960174560546 30.533043869018556,129.59960174560547 27.833043869018553,129.59960174560547 H2.0930438690185547 zM42.23304386901856,69.83960174560548 C40.79304386901856,74.15960174560547 38.81304386901856,78.83960174560548 37.01304386901855,83.69960174560546 H77.33304386901855 C70.49304386901855,65.51960174560546 64.01304386901856,47.339601745605464 57.533043869018556,28.980001745605463 C51.77304386901855,41.03960174560547 47.09304386901856,56.15960174560547 42.23304386901856,69.83960174560548 z" fill="#351010" id="svg_1" class=""/><path d="M140.62604386901856,9.000001745605474 C138.28604386901856,7.560001745605476 137.92604386901854,3.600001745605468 140.62604386901856,3.600001745605468 H195.70604386901854 C217.84604386901856,3.600001745605468 244.12604386901853,8.820001745605467 244.12604386901853,33.66000174560547 C244.12604386901853,49.67960174560547 231.70604386901854,58.139601745605475 218.56604386901856,61.91960174560546 C235.66604386901855,65.69960174560546 253.12604386901853,74.33960174560548 253.12604386901853,93.41960174560546 C253.12604386901853,122.57960174560546 224.86604386901857,129.59960174560547 195.70604386901854,129.59960174560547 H140.62604386901856 C137.92604386901854,129.59960174560547 138.28604386901856,125.63960174560546 140.62604386901856,124.19960174560546 C147.82604386901855,119.87960174560547 147.82604386901855,95.21960174560547 147.82604386901855,66.95960174560548 C147.82604386901855,38.69960174560546 148.72604386901855,13.860001745605473 140.62604386901856,9.000001745605474 zM178.42604386901854,64.79960174560546 C178.42604386901854,65.33960174560548 178.42604386901854,66.05960174560548 178.42604386901854,66.59960174560547 C178.42604386901854,94.85960174560546 176.98604386901854,124.19960174560546 195.70604386901854,124.19960174560546 C213.16604386901855,124.19960174560546 222.52604386901857,107.81960174560547 222.52604386901857,95.21960174560547 C222.52604386901857,70.91960174560546 209.74604386901856,65.15960174560547 178.42604386901854,64.79960174560546 zM195.70604386901854,9.000001745605474 C177.52604386901857,9.000001745605474 178.24604386901856,33.48000174560546 178.42604386901854,59.399601745605466 C205.06604386901856,59.03960174560547 213.52604386901857,52.19960174560546 213.52604386901857,34.38000174560547 C213.52604386901857,21.600001745605468 208.48604386901854,9.000001745605474 195.70604386901854,9.000001745605474 z" fill="#351010" id="svg_2" class=""/><path d="M262.42504386901857,109.61960174560548 C257.74504386901856,97.73960174560546 266.56504386901855,87.29960174560546 276.2850438690186,87.29960174560546 C281.86504386901856,87.29960174560546 287.80504386901856,90.71960174560547 291.76504386901854,99.35960174560546 C297.88504386901855,112.85960174560546 302.02504386901853,127.79960174560546 318.58504386901853,127.79960174560546 C328.30504386901856,127.79960174560546 337.6650438690186,118.79960174560546 337.6650438690186,110.87960174560547 C337.6650438690186,77.39960174560548 264.76504386901854,72.71960174560547 264.76504386901854,30.780001745605475 C264.76504386901854,14.940001745605471 281.14504386901854,0.0000017456054735021098 308.86504386901856,0.0000017456054735021098 C337.12504386901855,0.0000017456054735021098 353.14504386901854,6.66000174560547 361.42504386901857,19.80000174560547 C370.42504386901857,34.20000174560546 358.54504386901857,46.07960174560547 347.74504386901856,46.07960174560547 C343.42504386901857,46.07960174560547 339.1050438690186,44.09960174560547 336.58504386901853,39.59960174560547 C326.50504386901855,21.600001745605468 318.04504386901857,5.400001745605465 307.42504386901857,5.400001745605465 C298.7850438690186,5.400001745605465 295.36504386901856,12.960001745605467 295.36504386901856,19.080001745605472 C295.36504386901856,54.71960174560547 368.44504386901855,63.53960174560547 368.44504386901855,99.35960174560546 C368.44504386901855,120.95960174560548 343.24504386901856,133.19960174560546 315.70504386901854,133.19960174560546 C296.44504386901855,133.19960174560546 269.08504386901853,126.53960174560547 262.42504386901857,109.61960174560548 z" fill="#351010" id="svg_3" class=""/><path d="M436.33504386901853,133.19960174560546 C400.33504386901853,133.19960174560546 374.23504386901857,106.19960174560546 374.23504386901857,66.59960174560547 C374.23504386901857,27.000001745605474 400.33504386901853,0.0000017456054735021098 436.33504386901853,0.0000017456054735021098 C472.33504386901853,0.0000017456054735021098 498.4350438690185,27.000001745605474 498.4350438690185,66.59960174560547 C498.4350438690185,106.19960174560546 472.33504386901853,133.19960174560546 436.33504386901853,133.19960174560546 zM411.13504386901855,10.080001745605472 C387.73504386901857,20.88000174560547 396.73504386901857,55.79960174560547 407.5350438690186,79.55960174560548 C416.89504386901854,99.89960174560548 432.73504386901857,124.91960174560546 451.63504386901855,124.91960174560546 C454.87504386901855,124.91960174560546 458.11504386901856,124.19960174560546 461.5350438690186,122.57960174560546 C485.11504386901856,111.77960174560548 475.75504386901855,77.21960174560547 465.13504386901855,53.639601745605475 C455.95504386901854,33.30000174560547 439.93504386901856,7.920001745605475 420.8550438690186,7.920001745605475 C417.61504386901856,7.920001745605475 414.37504386901855,8.640001745605474 411.13504386901855,10.080001745605472 z" fill="#351010" id="svg_4" class=""/><path d="M509.4150438690185,129.59960174560547 C506.7150438690186,129.59960174560547 507.0750438690186,125.63960174560546 509.4150438690185,124.19960174560546 C517.3350438690186,119.51960174560546 516.9750438690186,90.89960174560548 516.9750438690186,66.59960174560547 C516.9750438690186,42.29960174560547 517.6950438690186,13.860001745605473 509.4150438690185,9.000001745605474 C507.0750438690186,7.560001745605476 506.7150438690186,3.600001745605468 509.4150438690185,3.600001745605468 H555.1350438690185 C557.8350438690186,3.600001745605468 557.8350438690186,7.380001745605469 555.1350438690185,9.000001745605474 C547.2150438690186,14.040001745605466 547.5750438690186,42.29960174560547 547.5750438690186,66.59960174560547 C547.5750438690186,90.89960174560548 547.0350438690185,124.19960174560546 562.3350438690186,124.19960174560546 C573.1350438690185,124.19960174560546 574.7550438690186,110.33960174560548 578.3550438690186,100.79960174560546 C581.2350438690186,92.87960174560547 584.2950438690185,86.57960174560546 591.4950438690186,86.57960174560546 C598.1550438690185,86.57960174560546 601.3950438690185,92.87960174560547 601.3950438690185,98.63960174560546 C601.3950438690185,121.13960174560546 600.3150438690186,129.59960174560547 588.0750438690186,129.59960174560547 H509.4150438690185 z" fill="#351010" id="svg_5" class=""/><path d="M604.4910438690185,9.000001745605474 C601.9710438690186,7.560001745605476 601.7910438690186,3.600001745605468 604.4910438690185,3.600001745605468 H650.2110438690186 C652.9110438690185,3.600001745605468 652.5510438690186,7.560001745605476 650.2110438690186,9.000001745605474 C641.7510438690185,14.040001745605466 642.6510438690185,42.29960174560547 642.6510438690185,66.59960174560547 C642.6510438690185,101.15960174560547 641.3910438690185,127.79960174560546 667.6710438690186,127.79960174560546 C687.8310438690186,127.79960174560546 703.3110438690186,118.25960174560547 703.3110438690186,66.59960174560547 C703.3110438690186,42.29960174560547 704.2110438690186,14.040001745605466 695.7510438690185,9.000001745605474 C693.4110438690185,7.560001745605476 693.0510438690186,3.600001745605468 695.7510438690185,3.600001745605468 H719.8710438690185 C722.5710438690186,3.600001745605468 722.3910438690185,7.560001745605476 719.8710438690185,9.000001745605474 C712.8510438690186,13.320001745605467 712.3110438690186,42.29960174560547 712.3110438690186,77.75960174560547 C712.3110438690186,112.13960174560546 695.2110438690186,133.19960174560546 667.4910438690185,133.19960174560546 C629.5110438690185,133.19960174560546 612.0510438690186,112.13960174560546 612.0510438690186,77.75960174560547 C612.0510438690186,42.29960174560547 611.5110438690185,13.320001745605467 604.4910438690185,9.000001745605474 z" fill="#351010" id="svg_6" class=""/><path d="M726.4160438690186,34.560001745605476 C726.4160438690186,12.060001745605476 727.4960438690185,3.600001745605468 739.7360438690185,3.600001745605468 H826.1360438690185 C838.3760438690185,3.600001745605468 839.4560438690186,12.060001745605476 839.4560438690186,34.560001745605476 C839.4560438690186,40.31960174560547 836.2160438690186,46.619601745605465 829.5560438690186,46.619601745605465 C822.3560438690185,46.619601745605465 819.2960438690186,40.31960174560547 816.4160438690186,32.400001745605465 C812.8160438690186,22.860001745605473 811.1960438690186,9.000001745605474 800.3960438690185,9.000001745605474 C796.7960438690186,9.000001745605474 796.4360438690186,48.779601745605476 796.4360438690186,69.83960174560548 C796.4360438690186,90.89960174560548 796.7960438690186,118.79960174560546 805.7960438690186,124.19960174560546 C808.1360438690185,125.63960174560546 808.4960438690185,129.59960174560547 805.7960438690186,129.59960174560547 H760.0760438690186 C757.3760438690185,129.59960174560547 757.7360438690185,125.63960174560546 760.0760438690186,124.19960174560546 C769.0760438690186,118.79960174560546 769.4360438690186,90.89960174560548 769.4360438690186,69.83960174560548 C769.4360438690186,48.779601745605476 769.0760438690186,9.000001745605474 765.4760438690186,9.000001745605474 C754.6760438690186,9.000001745605474 753.0560438690186,22.860001745605473 749.4560438690186,32.400001745605465 C746.5760438690186,40.31960174560547 743.5160438690185,46.619601745605465 736.3160438690186,46.619601745605465 C729.6560438690185,46.619601745605465 726.4160438690186,40.31960174560547 726.4160438690186,34.560001745605476 z" fill="#351010" id="svg_7" class=""/><path d="M892.9520438690186,109.61960174560548 C888.2720438690186,97.73960174560546 897.0920438690185,87.29960174560546 906.8120438690186,87.29960174560546 C912.3920438690186,87.29960174560546 918.3320438690185,90.71960174560547 922.2920438690186,99.35960174560546 C928.4120438690186,112.85960174560546 932.5520438690186,127.79960174560546 949.1120438690185,127.79960174560546 C958.8320438690185,127.79960174560546 968.1920438690186,118.79960174560546 968.1920438690186,110.87960174560547 C968.1920438690186,77.39960174560548 895.2920438690186,72.71960174560547 895.2920438690186,30.780001745605475 C895.2920438690186,14.940001745605471 911.6720438690186,0.0000017456054735021098 939.3920438690186,0.0000017456054735021098 C967.6520438690186,0.0000017456054735021098 983.6700438690185,6.66000174560547 991.9500438690186,19.80000174560547 C1000.9500438690186,34.20000174560546 989.0700438690186,46.07960174560547 978.2700438690185,46.07960174560547 C973.9520438690186,46.07960174560547 969.6320438690185,44.09960174560547 967.1120438690185,39.59960174560547 C957.0320438690186,21.600001745605468 948.5720438690186,5.400001745605465 937.9520438690186,5.400001745605465 C929.3120438690186,5.400001745605465 925.8920438690186,12.960001745605467 925.8920438690186,19.080001745605472 C925.8920438690186,54.71960174560547 998.9700438690186,63.53960174560547 998.9700438690186,99.35960174560546 C998.9700438690186,120.95960174560548 973.7720438690186,133.19960174560546 946.2320438690185,133.19960174560546 C926.9720438690185,133.19960174560546 899.6120438690185,126.53960174560547 892.9520438690186,109.61960174560548 z" fill="#351010" id="svg_8" class=""/><path d="M1008.1100438690185,129.59960174560547 C1005.4100438690186,129.59960174560547 1005.7700438690185,125.63960174560546 1008.1100438690185,124.19960174560546 C1015.4900438690186,119.69960174560546 1015.6700438690186,90.89960174560548 1015.6700438690186,66.59960174560547 C1015.6700438690186,42.29960174560547 1016.5700438690185,14.040001745605466 1008.1100438690185,9.000001745605474 C1005.7700438690185,7.560001745605476 1005.4100438690186,3.600001745605468 1008.1100438690185,3.600001745605468 H1053.8300438690185 C1056.5300438690185,3.600001745605468 1056.3500438690185,7.560001745605476 1053.8300438690185,9.000001745605474 C1045.9100438690186,13.860001745605473 1046.2700438690185,42.29960174560547 1046.2700438690185,66.59960174560547 C1046.2700438690185,90.89960174560548 1045.3700438690184,119.15960174560547 1053.8300438690185,124.19960174560546 C1056.1700438690186,125.63960174560546 1056.5300438690185,129.59960174560547 1053.8300438690185,129.59960174560547 H1008.1100438690185 z" fill="#351010" id="svg_9" class=""/><path d="M1064.8800438690187,66.59960174560547 C1064.8800438690187,27.000001745605474 1090.9800438690186,0.0000017456054735021098 1126.9800438690186,0.0000017456054735021098 C1147.3200438690185,0.0000017456054735021098 1165.1400438690187,6.66000174560547 1173.4200438690186,19.80000174560547 C1182.6000438690185,34.20000174560546 1171.0800438690185,45.899601745605466 1160.2800438690185,45.899601745605466 C1155.7800438690185,45.899601745605466 1151.6400438690187,43.91960174560546 1148.7600438690185,39.59960174560547 C1139.4000438690186,25.02000174560547 1132.2000438690186,6.840001745605463 1111.5000438690186,6.840001745605463 C1095.8400438690185,6.840001745605463 1086.8400438690185,19.80000174560547 1086.8400438690185,38.87960174560547 C1086.8400438690185,63.17960174560547 1109.1600438690186,117.71960174560547 1140.6600438690186,117.71960174560547 C1155.6000438690185,117.71960174560547 1169.1000438690185,107.63960174560546 1175.4000438690186,98.27960174560548 C1176.4800438690186,96.65960174560547 1177.9200438690186,95.93960174560547 1179.1800438690186,95.93960174560547 C1181.7000438690186,95.93960174560547 1183.8600438690185,98.63960174560546 1181.8800438690187,102.59960174560547 C1176.3000438690185,114.11960174560548 1155.4200438690186,133.19960174560546 1126.9800438690186,133.19960174560546 C1090.9800438690186,133.19960174560546 1064.8800438690187,106.19960174560546 1064.8800438690187,66.59960174560547 z" fill="#351010" id="svg_10" class=""/><path d="M1189.6900438690186,129.59960174560547 C1186.9900438690186,129.59960174560547 1187.3500438690185,125.63960174560546 1189.6900438690186,124.19960174560546 C1197.0700438690185,119.69960174560546 1197.2500438690186,90.89960174560548 1197.2500438690186,66.59960174560547 C1197.2500438690186,42.29960174560547 1198.1500438690186,14.040001745605466 1189.6900438690186,9.000001745605474 C1187.3500438690185,7.560001745605476 1186.9900438690186,3.600001745605468 1189.6900438690186,3.600001745605468 H1235.4100438690186 C1238.1100438690185,3.600001745605468 1237.9300438690186,7.560001745605476 1235.4100438690186,9.000001745605474 C1227.8500438690185,13.680001745605466 1227.8500438690185,40.31960174560547 1227.8500438690185,63.89960174560548 H1269.2500438690186 C1269.2500438690186,40.31960174560547 1269.7900438690185,13.860001745605473 1261.6900438690186,9.000001745605474 C1259.3500438690185,7.560001745605476 1258.9900438690186,3.600001745605468 1261.6900438690186,3.600001745605468 H1307.4100438690186 C1310.1100438690185,3.600001745605468 1309.9300438690186,7.560001745605476 1307.4100438690186,9.000001745605474 C1299.4900438690186,13.860001745605473 1299.8500438690185,42.29960174560547 1299.8500438690185,66.59960174560547 C1299.8500438690185,90.89960174560548 1298.9500438690186,119.15960174560547 1307.4100438690186,124.19960174560546 C1309.7500438690186,125.63960174560546 1310.1100438690185,129.59960174560547 1307.4100438690186,129.59960174560547 H1261.6900438690186 C1258.9900438690186,129.59960174560547 1259.3500438690185,125.63960174560546 1261.6900438690186,124.19960174560546 C1268.7100438690186,119.87960174560547 1269.2500438690186,93.05960174560548 1269.2500438690186,69.29960174560546 H1227.8500438690185 C1227.8500438690185,92.87960174560547 1227.3100438690185,119.33960174560548 1235.4100438690186,124.19960174560546 C1237.7500438690186,125.63960174560546 1238.1100438690185,129.59960174560547 1235.4100438690186,129.59960174560547 H1189.6900438690186 z" fill="#351010" id="svg_11" class=""/><path d="M1318.5400438690185,129.59960174560547 C1315.8400438690185,129.59960174560547 1316.2000438690186,125.63960174560546 1318.5400438690185,124.19960174560546 C1326.4600438690186,119.51960174560546 1326.1000438690185,90.89960174560548 1326.1000438690185,66.59960174560547 C1326.1000438690185,42.29960174560547 1326.8200438690185,13.860001745605473 1318.5400438690185,9.000001745605474 C1316.2000438690186,7.560001745605476 1315.8400438690185,3.600001745605468 1318.5400438690185,3.600001745605468 H1390.9000438690186 C1407.1000438690185,3.600001745605468 1413.9400438690186,14.580001745605472 1413.9400438690186,27.180001745605466 C1413.9400438690186,33.120001745605464 1412.5000438690186,43.01960174560547 1404.0400438690185,43.01960174560547 C1396.4800438690186,43.01960174560547 1393.9600438690186,36.71960174560547 1391.8000438690185,30.780001745605475 C1387.4800438690186,19.260001745605464 1384.9600438690186,9.000001745605474 1371.4600438690186,9.000001745605474 C1356.8800438690187,9.180001745605466 1356.7000438690186,39.05960174560546 1356.7000438690186,62.81960174560547 C1363.7200438690186,61.01960174560547 1368.4000438690186,56.87960174560547 1370.9200438690186,52.01960174560547 C1373.2600438690185,47.339601745605464 1375.9600438690186,45.17960174560547 1377.9400438690186,45.17960174560547 C1380.1000438690185,45.17960174560547 1381.7200438690186,47.51960174560547 1381.7200438690186,52.01960174560547 V81.35960174560546 C1381.7200438690186,85.85960174560546 1380.1000438690185,88.01960174560546 1377.9400438690186,88.01960174560546 C1375.9600438690186,88.01960174560546 1373.2600438690185,85.85960174560546 1370.9200438690186,81.35960174560546 C1368.4000438690186,76.49960174560547 1363.7200438690186,72.35960174560546 1356.7000438690186,70.55960174560548 C1356.7000438690186,94.31960174560547 1356.8800438690187,124.19960174560546 1371.4600438690186,124.19960174560546 C1385.1400438690187,124.19960174560546 1390.3600438690185,113.93960174560547 1394.6800438690186,102.41960174560546 C1396.8400438690185,96.47960174560546 1399.3600438690185,90.17960174560548 1406.9200438690186,90.17960174560548 C1415.3800438690187,90.17960174560548 1416.8200438690185,100.07960174560546 1416.8200438690185,106.01960174560546 C1416.8200438690185,118.61960174560548 1407.2800438690185,129.59960174560547 1391.0800438690185,129.59960174560547 H1318.5400438690185 z" fill="#351010" id="svg_12" class=""/><path d="M1425.9400438690186,9.000001745605474 C1423.6000438690185,7.560001745605476 1423.2400438690186,3.600001745605468 1425.9400438690186,3.600001745605468 H1481.0200438690185 C1503.1600438690186,3.600001745605468 1529.4400438690186,12.420001745605475 1529.4400438690186,38.15960174560547 C1529.4400438690186,58.859601745605474 1502.8000438690185,72.89960174560548 1489.6600438690186,72.89960174560548 H1483.9000438690186 C1505.1400438690187,72.89960174560548 1514.5000438690186,79.73960174560546 1524.5800438690185,98.45960174560548 C1533.2200438690186,114.65960174560547 1537.0000438690186,121.67960174560548 1544.0200438690185,123.65960174560547 C1547.8000438690185,124.73960174560546 1547.2600438690185,129.59960174560547 1543.6600438690186,129.59960174560547 H1502.2600438690185 C1499.5600438690185,129.59960174560547 1499.5600438690185,125.81960174560547 1502.0800438690185,124.19960174560546 C1506.0400438690185,121.67960174560548 1500.2800438690185,108.17960174560548 1497.7600438690185,102.77960174560548 C1490.5600438690185,87.83960174560548 1486.4200438690186,74.51960174560546 1469.5000438690186,74.51960174560546 H1463.7400438690186 C1463.9200438690186,96.65960174560547 1464.6400438690187,119.69960174560546 1471.6600438690186,124.19960174560546 C1474.3600438690185,125.81960174560547 1474.3600438690185,129.59960174560547 1471.6600438690186,129.59960174560547 H1425.9400438690186 C1423.2400438690186,129.59960174560547 1423.6000438690185,125.63960174560546 1425.9400438690186,124.19960174560546 C1433.5000438690186,119.69960174560546 1433.1400438690187,90.89960174560548 1433.1400438690187,66.59960174560547 C1433.1400438690187,42.29960174560547 1434.2200438690186,13.860001745605473 1425.9400438690186,9.000001745605474 zM1481.0200438690185,9.000001745605474 C1460.5000438690186,9.000001745605474 1463.7400438690186,42.29960174560547 1463.7400438690186,66.59960174560547 C1463.7400438690186,67.49960174560547 1463.7400438690186,68.21960174560547 1463.7400438690186,69.11960174560548 C1488.7600438690185,68.57960174560546 1498.8400438690185,59.57960174560547 1498.8400438690185,39.23960174560547 C1498.8400438690185,21.24000174560547 1492.3600438690185,9.000001745605474 1481.0200438690185,9.000001745605474 z" fill="#351010" id="svg_13" class=""/><path d="M2.8130438690185535,248.99960174560545 C0.47304386901855366,247.55960174560545 0.11304386901855423,243.59960174560547 2.8130438690185535,243.59960174560547 H75.17304386901856 C91.37304386901856,243.59960174560547 98.21304386901855,254.5796017456055 98.21304386901855,267.17960174560545 C98.21304386901855,273.11960174560545 96.77304386901855,283.0196017456055 88.31304386901856,283.0196017456055 C80.75304386901855,283.0196017456055 78.23304386901856,276.7196017456055 76.07304386901855,270.7796017456055 C71.75314386901856,259.2596017456055 69.23304386901856,248.99960174560545 55.73304386901856,248.99960174560545 C41.87304386901856,249.17960174560545 40.973043869018554,276.17960174560545 40.973043869018554,299.2196017456055 C47.99304386901855,297.41960174560546 52.67304386901856,293.2796017456055 55.193143869018556,288.41960174560546 C57.533043869018556,283.73960174560546 60.23314386901855,281.5796017456055 62.21314386901855,281.5796017456055 C64.37304386901856,281.5796017456055 65.99304386901855,283.91960174560546 65.99304386901855,288.41960174560546 V317.7596017456055 C65.99304386901855,322.2596017456055 64.37304386901856,324.41960174560546 62.21314386901855,324.41960174560546 C60.23314386901855,324.41960174560546 57.533043869018556,322.2596017456055 55.193143869018556,317.7596017456055 C52.67304386901856,312.8996017456055 47.99304386901855,308.7596017456055 40.973043869018554,306.9596017456055 C40.973043869018554,331.0796017456055 40.43304386901856,364.1996017456055 55.73304386901856,364.1996017456055 C58.43304386901856,364.1996017456055 58.43304386901856,369.59960174560547 55.73304386901856,369.59960174560547 H2.8130438690185535 C0.11304386901855423,369.59960174560547 0.47304386901855366,365.6396017456055 2.8130438690185535,364.1996017456055 C10.733043869018552,359.5196017456055 10.373043869018552,330.8996017456055 10.373043869018552,306.59960174560547 C10.373043869018552,282.29960174560546 11.093043869018558,253.85960174560546 2.8130438690185535,248.99960174560545 z" fill="#351010" id="svg_14" class=""/><path d="M104.74504386901856,248.99960174560545 C102.22504386901855,247.55960174560545 102.04504386901856,243.59960174560547 104.74504386901856,243.59960174560547 H150.46504386901856 C153.16504386901855,243.59960174560547 152.80504386901856,247.55960174560545 150.46504386901856,248.99960174560545 C142.00504386901855,254.03960174560547 142.90504386901856,282.29960174560546 142.90504386901856,306.59960174560547 C142.90504386901856,341.15960174560547 141.64504386901856,367.79960174560546 167.92504386901857,367.79960174560546 C188.08504386901856,367.79960174560546 203.56504386901855,358.2596017456055 203.56504386901855,306.59960174560547 C203.56504386901855,282.29960174560546 204.46504386901856,254.03960174560547 196.00504386901855,248.99960174560545 C193.66504386901855,247.55960174560545 193.30504386901856,243.59960174560547 196.00504386901855,243.59960174560547 H220.12504386901855 C222.82504386901854,243.59960174560547 222.64504386901856,247.55960174560545 220.12504386901855,248.99960174560545 C213.10504386901854,253.3196017456055 212.56504386901855,282.29960174560546 212.56504386901855,317.7596017456055 C212.56504386901855,352.1396017456055 195.46504386901856,373.1996017456055 167.74504386901856,373.1996017456055 C129.76504386901854,373.1996017456055 112.30504386901856,352.1396017456055 112.30504386901856,317.7596017456055 C112.30504386901856,282.29960174560546 111.76504386901854,253.3196017456055 104.74504386901856,248.99960174560545 z" fill="#351010" id="svg_15" class=""/><path d="M230.45004386901854,248.99960174560545 C228.11004386901857,247.55960174560545 227.75004386901855,243.59960174560547 230.45004386901854,243.59960174560547 H285.5300438690185 C307.67004386901857,243.59960174560547 333.95004386901854,252.41960174560546 333.95004386901854,278.15960174560547 C333.95004386901854,298.85960174560546 307.31004386901856,312.8996017456055 294.17004386901857,312.8996017456055 H288.4100438690186 C309.65004386901853,312.8996017456055 319.01004386901855,319.73960174560546 329.09004386901853,338.4596017456055 C337.7300438690186,354.65960174560547 341.51004386901855,361.67960174560545 348.5300438690185,363.65960174560547 C352.31004386901856,364.73960174560546 351.77004386901854,369.59960174560547 348.17004386901857,369.59960174560547 H306.77004386901854 C304.07004386901855,369.59960174560547 304.07004386901855,365.8196017456055 306.59004386901853,364.1996017456055 C310.55004386901857,361.67960174560545 304.7900438690186,348.17960174560545 302.27004386901854,342.7796017456055 C295.07004386901855,327.8396017456055 290.93004386901856,314.5196017456055 274.01004386901855,314.5196017456055 H268.25004386901855 C268.43004386901856,336.65960174560547 269.15004386901853,359.6996017456055 276.17004386901857,364.1996017456055 C278.87004386901856,365.8196017456055 278.87004386901856,369.59960174560547 276.17004386901857,369.59960174560547 H230.45004386901854 C227.75004386901855,369.59960174560547 228.11004386901857,365.6396017456055 230.45004386901854,364.1996017456055 C238.01004386901855,359.6996017456055 237.65004386901853,330.8996017456055 237.65004386901853,306.59960174560547 C237.65004386901853,282.29960174560546 238.73004386901857,253.85960174560546 230.45004386901854,248.99960174560545 zM285.5300438690185,248.99960174560545 C265.01004386901855,248.99960174560545 268.25004386901855,282.29960174560546 268.25004386901855,306.59960174560547 C268.25004386901855,307.49960174560545 268.25004386901855,308.2196017456055 268.25004386901855,309.11960174560545 C293.27004386901854,308.5796017456055 303.3500438690186,299.5796017456055 303.3500438690186,279.23960174560546 C303.3500438690186,261.23960174560546 296.87004386901856,248.99960174560545 285.5300438690185,248.99960174560545 z" fill="#351010" id="svg_16" class=""/><path d="M406.9340438690186,369.59960174560547 C404.23404386901854,369.59960174560547 404.59404386901855,365.6396017456055 406.9340438690186,364.1996017456055 C414.3140438690186,359.6996017456055 414.4940438690186,330.8996017456055 414.4940438690186,306.59960174560547 C414.4940438690186,282.29960174560546 415.39404386901856,254.03960174560547 406.9340438690186,248.99960174560545 C404.59404386901855,247.55960174560545 404.23404386901854,243.59960174560547 406.9340438690186,243.59960174560547 H452.65404386901855 C455.35404386901854,243.59960174560547 455.17404386901853,247.55960174560545 452.65404386901855,248.99960174560545 C445.09404386901855,253.67960174560545 445.09404386901855,279.41960174560546 445.09404386901855,302.8196017456055 C447.79404386901854,299.3996017456055 459.3140438690186,284.2796017456055 462.01404386901856,280.49960174560545 C473.35404386901854,263.93960174560544 481.45404386901856,250.61960174560545 476.41404386901854,248.99960174560545 C473.53404386901855,248.09960174560547 473.89404386901856,243.59960174560547 476.59404386901855,243.59960174560547 H504.13404386901857 C506.8340438690185,243.59960174560547 507.7340438690186,247.55960174560545 504.13404386901857,248.99960174560545 C495.3140438690185,252.59960174560547 483.61404386901853,265.91960174560546 470.29404386901854,282.47960174560546 C464.35404386901854,290.03960174560547 453.5540438690185,303.53960174560547 453.5540438690185,303.53960174560547 H463.63404386901857 C465.4340438690186,303.53960174560547 467.41404386901854,304.61960174560545 468.67404386901853,306.41960174560546 C472.9940438690186,311.8196017456055 481.9940438690186,323.3396017456055 487.03404386901855,329.99960174560545 C499.9940438690186,346.73960174560546 512.0540438690185,361.1396017456055 519.4340438690185,364.1996017456055 C522.6740438690185,365.6396017456055 522.1340438690186,369.59960174560547 519.4340438690185,369.59960174560547 H473.71404386901855 C471.01404386901856,369.59960174560547 470.47404386901854,365.2796017456055 473.71404386901855,364.1996017456055 C480.3740438690186,361.67960174560545 469.03404386901855,348.35960174560546 458.59404386901855,333.41960174560546 C454.9940438690186,328.55960174560545 449.59404386901855,320.99960174560545 445.09404386901855,314.6996017456055 C445.09404386901855,336.8396017456055 445.09404386901855,359.6996017456055 452.65404386901855,364.1996017456055 C454.9940438690186,365.6396017456055 455.35404386901854,369.59960174560547 452.65404386901855,369.59960174560547 H406.9340438690186 z" fill="#351010" id="svg_17" class=""/><path d="M528.9260438690186,369.59960174560547 C526.2260438690186,369.59960174560547 526.5860438690186,365.6396017456055 528.9260438690186,364.1996017456055 C536.3060438690186,359.6996017456055 536.4860438690185,330.8996017456055 536.4860438690185,306.59960174560547 C536.4860438690185,282.29960174560546 537.3860438690185,254.03960174560547 528.9260438690186,248.99960174560545 C526.5860438690186,247.55960174560545 526.2260438690186,243.59960174560547 528.9260438690186,243.59960174560547 H574.6460438690185 C577.3460438690186,243.59960174560547 577.1660438690186,247.55960174560545 574.6460438690185,248.99960174560545 C566.7260438690186,253.85960174560546 567.0860438690186,282.29960174560546 567.0860438690186,306.59960174560547 C567.0860438690186,330.8996017456055 566.1860438690186,359.15960174560547 574.6460438690185,364.1996017456055 C576.9860438690185,365.6396017456055 577.3460438690186,369.59960174560547 574.6460438690185,369.59960174560547 H528.9260438690186 z" fill="#351010" id="svg_18" class=""/><path d="M585.8790438690186,369.59960174560547 C583.1790438690185,369.59960174560547 583.5390438690185,365.6396017456055 585.8790438690186,364.1996017456055 C594.8790438690186,358.79960174560546 595.2390438690186,333.23960174560546 595.2390438690186,306.7796017456055 C595.2390438690186,280.3196017456055 594.8790438690186,254.39960174560548 585.8790438690186,248.99960174560545 C583.5390438690185,247.55960174560545 583.1790438690185,243.59960174560547 585.8790438690186,243.59960174560547 H613.7790438690186 C615.3990438690186,243.59960174560547 617.0190438690186,244.49960174560545 617.9190438690185,245.93960174560544 L675.6990438690185,342.59960174560547 C676.9590438690185,332.3396017456055 676.9590438690185,320.2796017456055 676.9590438690185,309.8396017456055 C676.9590438690185,288.7796017456055 676.5990438690186,254.39960174560548 667.5990438690186,248.99960174560545 C665.2590438690186,247.55960174560545 664.8990438690186,243.59960174560547 667.5990438690186,243.59960174560547 H691.7190438690186 C694.4190438690185,243.59960174560547 694.2400438690186,247.55960174560545 691.7190438690186,248.99960174560545 C682.7190438690186,254.39960174560548 682.3590438690186,288.7796017456055 682.3590438690186,309.8396017456055 C682.3590438690186,330.8996017456055 683.2590438690186,357.8996017456055 689.7390438690186,361.85960174560546 C694.2390438690186,364.73960174560546 692.4390438690185,369.59960174560547 689.7390438690186,369.59960174560547 H663.9990438690186 C662.3790438690186,369.59960174560547 660.7590438690186,368.6996017456055 659.8590438690186,367.2596017456055 L601.8990438690186,270.41960174560546 C600.6390438690186,280.85960174560546 600.6390438690186,293.8196017456055 600.6390438690186,306.7796017456055 C600.6390438690186,333.23960174560546 600.9990438690186,358.79960174560546 609.9990438690186,364.1996017456055 C612.3390438690186,365.6396017456055 612.6990438690185,369.59960174560547 609.9990438690186,369.59960174560547 H585.8790438690186 z" fill="#351010" id="svg_19" class=""/><path d="M702.9500438690186,369.59960174560547 C700.2500438690186,369.59960174560547 700.6100438690186,365.6396017456055 702.9500438690186,364.1996017456055 C710.1500438690185,359.87960174560544 710.1500438690185,335.2196017456055 710.1500438690185,306.9596017456055 C710.1500438690185,278.6996017456055 711.0500438690185,253.85960174560546 702.9500438690186,248.99960174560545 C700.6100438690186,247.55960174560545 700.2500438690186,243.59960174560547 702.9500438690186,243.59960174560547 H758.0300438690185 C795.1100438690186,243.59960174560547 818.5100438690185,269.3396017456055 818.5100438690185,306.05960174560545 C818.5100438690185,342.7796017456055 795.4700438690186,369.59960174560547 758.0300438690185,369.59960174560547 H702.9500438690186 zM758.0300438690185,248.99960174560545 C738.2300438690186,248.99960174560545 740.7500438690186,278.3396017456055 740.7500438690186,306.59960174560547 C740.7500438690186,334.85960174560546 739.3100438690185,364.1996017456055 758.0300438690185,364.1996017456055 C776.3900438690185,364.1996017456055 787.9100438690185,342.7796017456055 787.9100438690185,306.7796017456055 C787.9100438690185,270.7796017456055 776.3900438690185,248.99960174560545 758.0300438690185,248.99960174560545 z" fill="#351010" id="svg_20" class=""/><path d="M823.5360438690185,369.59960174560547 C820.8360438690186,369.59960174560547 821.1960438690186,365.6396017456055 823.5360438690185,364.1996017456055 C831.4560438690186,359.5196017456055 831.0960438690186,330.8996017456055 831.0960438690186,306.59960174560547 C831.0960438690186,282.29960174560546 831.8160438690186,253.85960174560546 823.5360438690185,248.99960174560545 C821.1960438690186,247.55960174560545 820.8360438690186,243.59960174560547 823.5360438690185,243.59960174560547 H895.8960438690185 C912.0960438690186,243.59960174560547 918.9360438690186,254.5796017456055 918.9360438690186,267.17960174560545 C918.9360438690186,273.11960174560545 917.4960438690185,283.0196017456055 909.0360438690185,283.0196017456055 C901.4760438690186,283.0196017456055 898.9560438690186,276.7196017456055 896.7960438690186,270.7796017456055 C892.4760438690186,259.2596017456055 889.9560438690186,248.99960174560545 876.4560438690186,248.99960174560545 C861.8760438690185,249.17960174560545 861.6960438690186,279.05960174560545 861.6960438690186,302.8196017456055 C868.7160438690186,301.0196017456055 873.3960438690185,296.87960174560544 875.9160438690186,292.0196017456055 C878.2560438690185,287.3396017456055 880.9560438690186,285.17960174560545 882.9360438690186,285.17960174560545 C885.0960438690186,285.17960174560545 886.7160438690186,287.5196017456055 886.7160438690186,292.0196017456055 V321.35960174560546 C886.7160438690186,325.85960174560546 885.0960438690186,328.0196017456055 882.9360438690186,328.0196017456055 C880.9560438690186,328.0196017456055 878.2560438690185,325.85960174560546 875.9160438690186,321.35960174560546 C873.3960438690185,316.49960174560545 868.7160438690186,312.35960174560546 861.6960438690186,310.55960174560545 C861.6960438690186,334.3196017456055 861.8760438690185,364.1996017456055 876.4560438690186,364.1996017456055 C890.1360438690185,364.1996017456055 895.3560438690185,353.93960174560544 899.6760438690186,342.41960174560546 C901.8360438690186,336.47960174560546 904.3560438690185,330.17960174560545 911.9160438690186,330.17960174560545 C920.3760438690185,330.17960174560545 921.8160438690186,340.0796017456055 921.8160438690186,346.0196017456055 C921.8160438690186,358.61960174560545 912.2760438690185,369.59960174560547 896.0760438690186,369.59960174560547 H823.5360438690185 z" fill="#351010" id="svg_21" class=""/><path d="M930.9380438690185,248.99960174560545 C928.5980438690185,247.55960174560545 928.2380438690186,243.59960174560547 930.9380438690185,243.59960174560547 H986.0200438690185 C1008.1600438690186,243.59960174560547 1034.4400438690186,252.41960174560546 1034.4400438690186,278.15960174560547 C1034.4400438690186,298.85960174560546 1007.8000438690185,312.8996017456055 994.6600438690185,312.8996017456055 H988.9000438690185 C1010.1400438690187,312.8996017456055 1019.5000438690186,319.73960174560546 1029.5800438690185,338.4596017456055 C1038.2200438690186,354.65960174560547 1042.0000438690186,361.67960174560545 1049.0200438690185,363.65960174560547 C1052.8000438690185,364.73960174560546 1052.2600438690185,369.59960174560547 1048.6600438690186,369.59960174560547 H1007.2600438690185 C1004.5600438690185,369.59960174560547 1004.5600438690185,365.8196017456055 1007.0800438690185,364.1996017456055 C1011.0400438690185,361.67960174560545 1005.2800438690185,348.17960174560545 1002.7600438690185,342.7796017456055 C995.5600438690185,327.8396017456055 991.4200438690185,314.5196017456055 974.4980438690186,314.5196017456055 H968.7380438690186 C968.9180438690186,336.65960174560547 969.6380438690186,359.6996017456055 976.6600438690185,364.1996017456055 C979.3600438690186,365.8196017456055 979.3600438690186,369.59960174560547 976.6600438690185,369.59960174560547 H930.9380438690185 C928.2380438690186,369.59960174560547 928.5980438690185,365.6396017456055 930.9380438690185,364.1996017456055 C938.4980438690186,359.6996017456055 938.1380438690186,330.8996017456055 938.1380438690186,306.59960174560547 C938.1380438690186,282.29960174560546 939.2180438690185,253.85960174560546 930.9380438690185,248.99960174560545 zM986.0200438690185,248.99960174560545 C965.4980438690186,248.99960174560545 968.7380438690186,282.29960174560546 968.7380438690186,306.59960174560547 C968.7380438690186,307.49960174560545 968.7380438690186,308.2196017456055 968.7380438690186,309.11960174560545 C993.7600438690185,308.5796017456055 1003.8400438690185,299.5796017456055 1003.8400438690185,279.23960174560546 C1003.8400438690185,261.23960174560546 997.3600438690186,248.99960174560545 986.0200438690185,248.99960174560545 z" fill="#351010" id="svg_22" class=""/><path d="M122.84204386901857,219.4376017456055 C110.57604386901855,209.16760174560545 130.92604386901854,205.70360174560545 138.62304386901855,207.10060174560545 C146.88504386901855,208.59960174560547 150.55804386901855,220.8196017456055 148.19904386901857,226.34960174560547 C145.25104386901856,233.26260174560548 138.17404386901856,232.27460174560548 122.84204386901857,219.4376017456055 z" fill="#351010" id="svg_23" class=""/><path d="M164.46004386901856,220.12060174560548 C156.38104386901855,209.44360174560546 168.71804386901854,202.6346017456055 177.05604386901857,204.55160174560547 C181.68804386901854,204.75760174560548 190.81104386901856,222.6946017456055 183.30204386901855,228.10160174560548 C178.19804386901856,231.7766017456055 174.56004386901856,233.4666017456055 164.46004386901856,220.12060174560548 z" fill="#351010" id="svg_24" class=""/><path d="M1281.4300438690186,157.78960174560547 C1280.2600438690185,158.53660174560548 1278.9600438690186,159.18660174560546 1277.9900438690186,160.04060174560547 C1277.0500438690185,160.87660174560546 1276.4600438690186,161.92760174560547 1275.5600438690185,163.05760174560547 C1277.7800438690185,163.23560174560546 1280.2300438690186,163.42160174560547 1282.7900438690185,163.62660174560546 C1283.6500438690186,161.74060174560546 1284.3500438690185,159.99660174560546 1285.2700438690185,158.33260174560547 C1285.5900438690185,157.75360174560547 1286.4600438690186,156.96160174560546 1287.1500438690186,156.92660174560547 C1295.4900438690186,156.40060174560546 1303.8400438690185,156.00060174560548 1312.2100438690186,155.60060174560547 C1312.6000438690185,155.58260174560547 1313.0300438690185,155.94760174560548 1313.7000438690186,156.24960174560547 C1311.2700438690185,157.23760174560547 1309.0600438690185,158.13660174560547 1306.8600438690185,159.03460174560547 L1307.0100438690185,158.97260174560546 C1301.9600438690186,157.04160174560548 1298.3400438690185,158.60760174560548 1295.1600438690186,161.65160174560546 C1297.5200438690185,162.30060174560546 1299.6500438690186,163.42160174560547 1301.6900438690186,161.00160174560546 C1302.1800438690186,160.41460174560547 1304.4900438690186,160.63660174560547 1305.9700438690186,160.47660174560548 C1307.8800438690187,162.13160174560548 1308.0100438690185,159.86260174560547 1309.1000438690185,159.72960174560546 L1309.0700438690185,159.81860174560546 C1313.5900438690185,159.39060174560547 1318.1000438690185,158.84860174560546 1322.6400438690187,158.58160174560547 C1324.9400438690186,158.44760174560548 1327.7500438690186,159.64060174560547 1328.4900438690186,156.81060174560548 C1328.5600438690185,156.53460174560547 1329.6200438690184,156.17860174560548 1330.1800438690186,156.21460174560548 C1336.2600438690185,156.58760174560547 1342.5800438690185,155.66260174560546 1348.2100438690186,158.49260174560547 C1349.8100438690185,159.29360174560546 1352.6600438690186,159.09760174560546 1354.8600438690185,158.90160174560546 C1357.3700438690184,158.67060174560547 1359.7800438690185,157.83360174560548 1362.3000438690185,157.45960174560548 C1363.1500438690186,157.33560174560546 1364.1500438690186,157.81560174560548 1364.8900438690187,158.77660174560546 H1360.4300438690186 C1359.2400438690186,161.98060174560547 1361.0200438690185,163.53760174560546 1366.0800438690185,163.91160174560548 C1364.1900438690186,160.76160174560547 1367.0800438690185,160.47660174560548 1369.8500438690185,159.63160174560548 C1376.1500438690186,157.72660174560548 1382.5500438690185,156.81960174560547 1389.3800438690187,157.21960174560547 C1396.1300438690187,157.61160174560547 1396.8900438690187,158.35860174560545 1394.3400438690185,163.04860174560548 C1398.6600438690186,164.37460174560547 1399.7700438690185,161.42860174560548 1402.4200438690186,159.84460174560547 C1403.6000438690185,162.60360174560546 1406.1400438690187,162.34560174560548 1409.4400438690186,161.99860174560547 C1415.5500438690185,161.35760174560548 1421.7700438690185,161.37560174560548 1427.9400438690186,161.02860174560547 C1429.4600438690186,160.93960174560547 1430.9500438690186,160.50360174560547 1432.4600438690186,160.22760174560545 C1432.3600438690185,159.91560174560547 1432.2600438690185,159.59560174560548 1432.1600438690186,159.28460174560547 C1430.4300438690186,158.95460174560546 1428.7100438690186,158.61660174560546 1426.7500438690186,158.24360174560547 C1430.0900438690185,156.28560174560548 1433.4500438690186,156.30360174560548 1436.7000438690186,158.42960174560548 C1439.9500438690186,160.56560174560548 1443.3600438690185,161.85560174560547 1448.2600438690185,160.78760174560546 C1447.5600438690185,159.85360174560546 1446.9600438690186,159.05260174560547 1445.8500438690185,157.55760174560547 H1465.3500438690185 C1462.4600438690186,158.52760174560547 1459.0000438690186,159.69360174560546 1455.6000438690185,160.84160174560546 C1458.3200438690185,162.10460174560546 1466.8300438690185,161.55360174560548 1470.5500438690185,159.48860174560548 C1472.8900438690187,158.18960174560547 1474.6700438690186,157.56660174560548 1477.3900438690187,158.98160174560547 C1478.2500438690186,159.42660174560547 1480.4700438690186,159.04360174560546 1481.6400438690187,158.53660174560548 C1486.8100438690185,156.31260174560546 1495.7800438690185,156.08060174560546 1499.9500438690186,158.74160174560546 C1503.9800438690186,161.30460174560548 1508.7100438690186,160.69960174560546 1514.2900438690185,161.82060174560547 C1511.0700438690185,158.01160174560547 1506.9900438690186,157.95860174560548 1501.8300438690185,158.10960174560546 C1508.4800438690186,156.20560174560546 1517.6000438690185,157.50460174560547 1520.2400438690186,159.88960174560546 C1523.1000438690185,158.85760174560548 1525.6800438690186,157.50460174560547 1528.5400438690185,157.03260174560546 C1531.6900438690186,156.51660174560547 1534.8000438690185,157.15760174560546 1535.2900438690185,160.36060174560546 C1537.9800438690186,159.59560174560548 1540.1700438690186,158.96360174560547 1542.3700438690184,158.33260174560547 C1550.0600438690185,156.11660174560546 1557.9100438690186,156.78360174560547 1565.8200438690185,157.49560174560546 C1571.6300438690187,158.02060174560546 1577.4700438690186,158.22560174560547 1583.3000438690185,158.60760174560548 C1587.6500438690186,158.89260174560548 1593.3400438690185,164.05360174560548 1591.7200438690186,166.86560174560546 C1590.9100438690186,168.28060174560548 1587.8400438690185,169.14360174560548 1585.5600438690185,169.93560174560548 C1584.7400438690186,170.22060174560548 1583.2700438690185,169.61560174560546 1582.1300438690187,169.33960174560548 C1571.8000438690185,166.83060174560546 1561.4600438690186,166.80360174560548 1550.7600438690185,168.34260174560546 C1545.1200438690184,169.15260174560547 1539.0800438690185,168.52060174560546 1533.2200438690186,168.52060174560546 C1509.9600438690186,168.54760174560548 1486.7000438690186,168.48560174560546 1463.4400438690186,168.61860174560547 C1445.0300438690185,168.71660174560546 1426.6300438690187,169.24160174560546 1408.2200438690186,169.22360174560546 C1390.6800438690186,169.20660174560547 1373.1300438690187,168.87660174560546 1355.6100438690185,168.34260174560546 C1350.8400438690185,168.20060174560547 1346.1600438690186,166.76760174560548 1341.4100438690186,166.04760174560548 C1339.8000438690185,165.79760174560548 1338.0100438690185,165.62860174560547 1336.4500438690186,165.90460174560548 C1330.4400438690186,166.96360174560547 1324.1700438690186,166.47460174560547 1318.5700438690185,164.15160174560546 C1316.9000438690186,168.18260174560547 1312.2900438690185,167.88060174560547 1307.9600438690186,167.70260174560548 C1292.4500438690186,167.05260174560547 1277.0800438690185,167.70260174560548 1261.6500438690186,169.02860174560547 C1250.8000438690185,169.96260174560547 1239.7200438690186,169.48160174560547 1228.7400438690186,169.61560174560546 C1227.3700438690184,169.63360174560546 1225.9900438690186,169.46460174560548 1224.6200438690184,169.50860174560546 C1212.2600438690185,169.90960174560547 1199.9000438690186,170.18460174560548 1187.5500438690185,170.79860174560548 C1174.7000438690186,171.43960174560547 1161.8900438690187,172.46260174560547 1149.0400438690185,173.20160174560547 C1139.7900438690185,173.73560174560546 1130.5300438690185,174.19860174560546 1121.2700438690185,174.46560174560548 C1102.3500438690185,175.01660174560547 1083.4000438690186,175.28360174560547 1064.4900438690186,175.93360174560547 C1055.6200438690184,176.23560174560546 1046.8200438690185,177.33960174560548 1037.9600438690186,177.75760174560546 C1023.5700438690185,178.44260174560546 1009.1600438690186,179.13660174560547 994.7500438690186,179.35060174560547 C965.2960438690186,179.79560174560547 935.8470438690185,179.90260174560547 906.3970438690186,180.17860174560548 C895.7250438690186,180.27560174560546 885.0530438690186,180.40060174560546 874.3930438690186,180.59660174560548 C868.7560438690185,180.69460174560547 864.4210438690186,178.54960174560546 860.6630438690186,176.04960174560546 C858.9560438690186,174.91060174560548 857.4700438690186,171.37760174560546 858.1830438690185,170.95960174560548 C860.9090438690185,169.33060174560546 864.5560438690186,167.58660174560546 867.8840438690186,167.55960174560548 C894.0430438690186,167.37260174560546 920.2130438690185,168.03160174560546 946.3590438690186,167.54260174560548 C985.4400438690186,166.81260174560546 1024.4900438690186,165.34460174560547 1063.5400438690185,164.19660174560548 C1077.6400438690187,163.77760174560547 1091.7600438690185,163.50260174560546 1105.8500438690185,162.90560174560548 C1118.9000438690186,162.35460174560546 1131.9200438690186,161.33060174560546 1144.9600438690186,160.77960174560548 C1157.3100438690185,160.25460174560547 1169.6700438690186,160.11160174560547 1182.0300438690185,159.70260174560548 C1184.9300438690186,159.60460174560546 1187.7900438690185,159.02660174560546 1190.6900438690186,158.82160174560548 C1192.7200438690186,158.67960174560548 1194.8000438690185,158.79460174560546 1196.8500438690185,158.79460174560546 C1197.1800438690186,159.25760174560546 1197.5000438690186,159.71160174560546 1197.8300438690185,160.17360174560548 C1196.5800438690185,160.72560174560547 1195.3300438690185,161.28660174560548 1194.0600438690185,161.83860174560547 C1193.9800438690186,162.02460174560548 1193.8800438690187,162.21160174560546 1193.7900438690185,162.39860174560548 C1193.8500438690185,162.18560174560548 1193.9200438690186,161.97160174560548 1193.9800438690186,161.74960174560547 C1195.7800438690185,161.59760174560546 1197.6600438690186,160.50360174560547 1198.7500438690186,162.92360174560548 C1199.1500438690186,163.79560174560547 1202.4400438690186,163.97360174560546 1204.6500438690186,164.53460174560547 C1205.3600438690185,162.94160174560548 1205.9300438690186,161.69560174560547 1206.4900438690186,160.44060174560548 L1206.5900438690185,160.50360174560547 C1205.5700438690185,160.23660174560547 1204.5500438690185,159.97860174560546 1203.5300438690185,159.71160174560546 C1203.5900438690185,159.34660174560548 1203.6400438690187,158.98160174560547 1203.7000438690186,158.61660174560546 C1211.9000438690186,158.50160174560546 1220.1000438690185,157.30860174560547 1229.0500438690185,159.47160174560548 C1227.1500438690186,160.39660174560547 1225.8600438690185,161.01960174560546 1224.5700438690185,161.65160174560546 C1220.8200438690185,161.76660174560547 1217.0900438690185,161.89160174560547 1213.3400438690185,162.00760174560546 C1217.2500438690186,163.31560174560548 1221.1800438690186,164.80160174560547 1224.4800438690186,161.57960174560546 C1225.8800438690187,161.99860174560547 1227.2500438690186,162.60360174560546 1228.7000438690186,162.77260174560547 C1230.2400438690186,162.95060174560547 1231.8900438690187,162.70160174560547 1233.4900438690186,162.64760174560547 C1233.0800438690185,161.37560174560548 1232.6600438690186,160.11160174560547 1232.2600438690185,158.83960174560548 L1232.3200438690185,158.93760174560546 H1241.7500438690186 C1242.6200438690184,157.23760174560547 1248.6200438690184,156.72160174560548 1255.1700438690186,158.36760174560547 C1254.3900438690187,159.99660174560546 1253.5900438690185,161.63360174560546 1252.8000438690185,163.27060174560546 C1253.0200438690185,163.59160174560546 1253.2600438690185,163.92060174560547 1253.4800438690186,164.24060174560546 C1257.9900438690186,159.56860174560546 1264.4900438690186,162.79960174560546 1269.9600438690186,161.53560174560548 C1267.3600438690185,159.95160174560547 1263.0600438690185,161.98060174560547 1261.8000438690185,158.74160174560546 C1261.8300438690185,158.74160174560546 1261.8500438690185,158.74160174560546 1261.8800438690187,158.74160174560546 C1262.5500438690185,158.02060174560546 1263.2900438690185,156.64160174560547 1263.9200438690186,156.66760174560548 C1269.7700438690185,156.92660174560547 1275.6000438690185,157.41560174560547 1281.4400438690186,157.84260174560546 L1281.3900438690187,157.79860174560548 L1281.4300438690186,157.78960174560547 zM1125.6300438690187,164.23160174560547 C1126.1300438690187,164.64960174560548 1126.6000438690185,165.07760174560548 1127.1000438690185,165.49560174560546 C1127.2300438690186,165.37060174560546 1127.3800438690187,165.24660174560546 1127.5100438690185,165.11260174560547 C1126.8400438690185,164.84560174560548 1126.1800438690186,164.56960174560547 1125.5000438690186,164.30260174560547 C1123.6800438690186,164.03560174560548 1121.8600438690185,163.77760174560547 1120.0300438690185,163.51060174560547 C1120.0300438690185,163.94660174560548 1120.0200438690185,164.38360174560546 1120.0100438690185,164.82760174560548 C1121.8900438690187,164.62360174560547 1123.7600438690185,164.42760174560547 1125.6300438690187,164.22260174560546 V164.23160174560547 zM1346.7900438690185,160.01360174560546 C1342.8300438690185,159.21260174560547 1339.3900438690187,158.51860174560548 1335.9600438690186,157.82460174560546 C1341.2400438690186,160.86860174560547 1344.8500438690185,161.59760174560546 1346.7900438690185,160.01360174560546 zM1178.4300438690186,164.08060174560546 C1178.2700438690185,163.73360174560545 1178.1100438690185,163.38660174560547 1177.9600438690186,163.03960174560547 C1173.7900438690185,162.26560174560547 1171.7100438690186,164.89960174560548 1168.5200438690185,165.74460174560548 C1168.7500438690186,166.13660174560547 1168.9900438690186,166.51860174560548 1169.2200438690186,166.91060174560548 C1172.2900438690185,165.96660174560546 1175.3600438690185,165.02360174560548 1178.4300438690186,164.08060174560546 zM1492.9200438690186,159.47960174560546 C1488.1300438690187,158.20760174560547 1487.7800438690185,158.33160174560547 1486.4800438690186,161.74060174560546 C1488.7300438690186,160.94860174560546 1490.5500438690185,160.30760174560547 1492.9200438690186,159.47960174560546 zM1159.0900438690185,165.10360174560546 C1159.2800438690185,164.73060174560547 1159.4900438690186,164.35660174560547 1159.6900438690186,163.98260174560548 C1157.2000438690186,163.29760174560548 1154.7000438690186,162.60360174560546 1152.2100438690186,161.90960174560547 L1151.7700438690185,162.77260174560547 C1154.2000438690186,163.54660174560547 1156.6400438690187,164.32060174560547 1159.0800438690185,165.09460174560547 L1159.0900438690185,165.10360174560546 zM1137.6200438690184,163.81360174560547 C1137.1900438690186,164.13360174560546 1136.7500438690186,164.44560174560547 1136.3200438690185,164.76560174560547 C1137.7400438690186,165.76260174560548 1139.1800438690186,166.75060174560548 1140.6100438690185,167.74660174560546 C1141.0500438690185,167.39960174560548 1141.4900438690186,167.05260174560547 1141.9200438690186,166.70560174560546 C1140.4800438690186,165.74460174560548 1139.0500438690185,164.77460174560548 1137.6100438690185,163.81360174560547 H1137.6200438690184 zM1326.1900438690186,161.68660174560546 C1326.3000438690185,161.96260174560547 1326.4000438690186,162.24760174560546 1326.5100438690185,162.52360174560548 C1328.0200438690185,162.32760174560548 1329.5300438690185,162.13160174560548 1331.6100438690185,161.87360174560547 C1328.8900438690187,159.15060174560546 1327.6400438690187,160.93960174560547 1326.1900438690186,161.68660174560546 zM1385.8300438690185,161.68660174560546 C1386.3400438690185,161.46460174560548 1386.8700438690184,161.24160174560546 1387.3900438690187,161.01960174560546 C1386.6400438690187,160.22760174560545 1385.8900438690187,159.44460174560547 1385.1500438690186,158.65260174560547 C1384.7600438690185,158.83060174560546 1384.3700438690184,159.00860174560546 1383.9700438690186,159.19560174560547 C1384.6000438690185,160.02260174560547 1385.2100438690186,160.85960174560546 1385.8400438690185,161.68660174560546 H1385.8300438690185 zM1117.0700438690185,167.73760174560547 C1117.2100438690186,167.35560174560547 1117.3500438690185,166.96360174560547 1117.4700438690186,166.58060174560546 C1116.2000438690186,166.51860174560548 1114.9400438690186,166.45660174560547 1113.6600438690186,166.39460174560546 C1113.6100438690185,166.68760174560546 1113.5700438690185,166.98160174560547 1113.5300438690185,167.27560174560546 C1114.7000438690186,167.43560174560548 1115.8800438690187,167.58660174560546 1117.0600438690185,167.74660174560546 L1117.0700438690185,167.73760174560547 zM1241.0500438690185,161.00160174560546 C1240.7600438690185,161.25060174560548 1240.4600438690186,161.50860174560546 1240.1700438690186,161.75760174560546 C1241.2800438690185,162.32760174560548 1242.4000438690186,162.90560174560548 1243.5200438690185,163.47560174560547 C1243.7600438690185,163.23560174560546 1244.0100438690185,163.00360174560547 1244.2600438690185,162.76360174560546 C1243.1900438690186,162.17660174560547 1242.1200438690184,161.58860174560547 1241.0500438690185,161.00160174560546 zM1555.9900438690186,160.90360174560547 L1557.0900438690185,160.52160174560547 C1556.7700438690185,160.04960174560546 1556.4600438690186,159.56860174560546 1556.1400438690187,159.09760174560546 C1555.8800438690187,159.20460174560546 1555.3700438690184,159.35560174560547 1555.3900438690187,159.42660174560547 C1555.5300438690185,159.92460174560546 1555.7800438690185,160.41460174560547 1555.9900438690186,160.90360174560547 zM1248.2500438690186,159.56860174560546 C1248.1900438690186,159.86260174560547 1248.1400438690187,160.15660174560546 1248.0700438690185,160.45860174560548 H1250.9600438690186 C1250.9600438690186,160.23660174560547 1250.9600438690186,160.00460174560547 1250.9600438690186,159.78260174560546 C1250.0500438690185,159.71160174560546 1249.1600438690186,159.64060174560547 1248.2500438690186,159.57760174560548 V159.56860174560546 zM1211.4900438690186,165.09460174560547 C1211.1200438690184,164.98860174560548 1210.7500438690186,164.88160174560548 1210.3800438690187,164.77460174560548 C1210.0800438690185,165.25560174560547 1209.7600438690185,165.73560174560546 1209.4500438690186,166.21660174560546 C1209.8300438690185,166.33160174560547 1210.5300438690185,166.58060174560546 1210.5600438690185,166.54560174560547 C1210.9300438690186,166.08260174560547 1211.2000438690186,165.58460174560548 1211.4900438690186,165.09460174560547 zM1379.7100438690186,159.64060174560547 V158.89260174560548 C1379.2600438690185,158.91960174560546 1378.7900438690185,158.92860174560548 1378.3600438690185,158.99960174560547 C1378.3000438690185,159.00860174560546 1378.3100438690185,159.55160174560547 1378.3900438690187,159.55960174560548 C1378.8200438690185,159.63160174560548 1379.2800438690185,159.62260174560546 1379.7100438690186,159.64060174560547 zM1529.5000438690186,158.82160174560548 C1529.2000438690186,159.05260174560547 1528.8600438690185,159.26660174560547 1528.6300438690187,159.52460174560548 C1528.5900438690185,159.56060174560548 1529.1300438690187,159.96960174560547 1529.2000438690186,159.94260174560546 C1529.5500438690185,159.79160174560548 1529.8500438690185,159.55960174560548 1530.1500438690186,159.36460174560546 C1529.9700438690186,159.21260174560547 1529.7700438690185,159.05260174560547 1529.4900438690186,158.82160174560548 H1529.5000438690186 zM1438.7500438690186,162.38960174560546 C1438.2600438690185,162.71060174560546 1437.8900438690187,162.88860174560546 1437.6900438690186,163.12860174560547 C1437.6200438690184,163.20860174560548 1437.9900438690186,163.63560174560547 1438.1200438690184,163.62660174560546 C1438.5300438690185,163.60860174560545 1438.9100438690186,163.44860174560546 1439.3000438690185,163.34160174560546 C1439.1400438690187,163.07460174560546 1438.9900438690186,162.81660174560548 1438.7500438690186,162.38960174560546 zM1424.1700438690186,163.02160174560547 C1424.0200438690185,163.19060174560548 1423.7400438690186,163.38660174560547 1423.7800438690185,163.52860174560547 C1423.8300438690185,163.68860174560547 1424.1700438690186,163.81360174560547 1424.3800438690187,163.94760174560548 C1424.5700438690185,163.70660174560547 1424.7700438690185,163.46660174560546 1424.9700438690186,163.22660174560548 C1424.7000438690186,163.15560174560548 1424.4400438690186,163.09260174560546 1424.1700438690186,163.02160174560547 zM1419.4500438690186,164.10760174560548 C1419.2400438690186,164.24060174560546 1419.0500438690185,164.36560174560546 1418.8400438690185,164.49860174560547 C1419.0600438690185,164.62360174560547 1419.2700438690185,164.83660174560546 1419.5000438690186,164.84560174560548 C1419.7100438690186,164.84560174560548 1419.9200438690186,164.62360174560547 1420.1300438690187,164.49860174560547 C1419.9100438690186,164.36560174560546 1419.6900438690186,164.24060174560546 1419.4500438690186,164.10760174560548 zM1451.8500438690185,164.58760174560547 C1452.1200438690184,164.67660174560547 1452.3900438690187,164.82760174560548 1452.6400438690187,164.81060174560548 C1452.8100438690185,164.80160174560547 1452.9300438690186,164.53460174560547 1453.0800438690185,164.38360174560546 C1452.8200438690185,164.28560174560548 1452.5500438690185,164.11660174560546 1452.3200438690185,164.12460174560547 C1452.1500438690186,164.13360174560546 1452.0100438690185,164.40960174560547 1451.8500438690185,164.57860174560548 V164.58760174560547 zM1124.7100438690186,168.38760174560548 C1124.2600438690185,168.26260174560548 1123.8800438690187,168.11160174560547 1123.5000438690186,168.08460174560548 C1123.3400438690185,168.08460174560548 1123.1400438690187,168.36060174560546 1122.9600438690186,168.52060174560546 C1123.3100438690185,168.67260174560548 1123.6600438690186,168.86760174560547 1124.0500438690185,168.94860174560546 C1124.1600438690186,168.97460174560547 1124.4100438690186,168.65460174560548 1124.7100438690186,168.38760174560548 zM1081.3400438690185,165.71760174560546 C1081.1000438690185,165.84260174560546 1080.8700438690184,165.95860174560548 1080.6400438690187,166.08260174560547 C1080.9100438690186,166.18960174560547 1081.1700438690186,166.38560174560547 1081.4400438690186,166.38560174560547 C1081.6700438690186,166.38560174560547 1081.9000438690186,166.16260174560546 1082.1400438690187,166.03860174560546 C1081.8800438690187,165.93160174560546 1081.6100438690185,165.82460174560546 1081.3500438690185,165.71760174560546 H1081.3400438690185 zM1336.9400438690186,162.28260174560546 C1336.7500438690186,162.12260174560546 1336.6000438690185,161.86460174560546 1336.3700438690184,161.82060174560547 C1336.1700438690186,161.78460174560547 1335.8800438690187,161.98960174560546 1335.6400438690187,162.08760174560547 C1335.8800438690187,162.30960174560548 1336.1200438690184,162.52360174560548 1336.3600438690185,162.74560174560546 C1336.5600438690185,162.59460174560547 1336.7500438690186,162.43460174560548 1336.9400438690186,162.28260174560546 zM1134.8200438690185,167.21260174560547 C1134.7100438690186,167.15060174560546 1134.6000438690185,167.08860174560547 1134.4900438690186,167.02560174560546 C1134.3700438690184,167.17760174560547 1134.2300438690186,167.31960174560547 1134.1500438690186,167.47960174560546 C1134.1300438690187,167.50660174560548 1134.3500438690185,167.59560174560548 1134.4600438690186,167.65760174560546 C1134.5900438690185,167.50660174560548 1134.7000438690186,167.35560174560547 1134.8200438690185,167.21260174560547 zM1050.2700438690185,171.08360174560548 C1050.4600438690186,171.23460174560546 1050.6600438690186,171.38660174560547 1050.8600438690185,171.53760174560546 C1051.0500438690185,171.37760174560546 1051.4100438690186,171.22660174560548 1051.4100438690186,171.06560174560548 C1051.4100438690186,170.92360174560548 1051.0500438690185,170.76360174560546 1050.8400438690185,170.61260174560547 C1050.6500438690186,170.77260174560547 1050.4400438690186,170.94160174560548 1050.2700438690185,171.07460174560546 V171.08360174560548 zM1379.5300438690185,162.74560174560546 L1379.2100438690186,162.70160174560547 L1379.3100438690185,162.91460174560547 L1379.5300438690185,162.73660174560547 V162.74560174560546 zM1192.1200438690184,165.22860174560546 C1191.9900438690186,165.16660174560548 1191.8700438690184,165.09460174560547 1191.7300438690186,165.03260174560546 C1191.6400438690187,165.20160174560547 1191.5600438690185,165.36160174560547 1191.4800438690186,165.53060174560548 C1191.6400438690187,165.53060174560548 1191.8400438690185,165.57560174560547 1191.9500438690186,165.53060174560548 C1192.0500438690185,165.48660174560547 1192.0700438690185,165.33560174560546 1192.1200438690184,165.22860174560546 zM1287.0400438690185,165.53060174560548 H1287.4500438690186 C1287.4500438690186,165.44160174560548 1287.4500438690186,165.30860174560547 1287.4000438690186,165.29060174560547 C1287.2900438690185,165.25560174560547 1287.1400438690187,165.28160174560546 1286.9900438690186,165.28160174560546 C1286.9900438690186,165.37060174560546 1287.0200438690185,165.45060174560547 1287.0300438690185,165.53060174560548 H1287.0400438690185 zM1151.7100438690186,166.60760174560548 C1151.5600438690185,166.75860174560546 1151.4100438690186,166.90160174560546 1151.2800438690185,167.05260174560547 C1151.4100438690186,167.08860174560547 1151.6300438690187,167.18660174560546 1151.6700438690186,167.15960174560547 C1151.8500438690185,167.03460174560547 1151.9800438690186,166.87460174560547 1152.1200438690184,166.72360174560546 C1151.9900438690186,166.68760174560546 1151.8500438690185,166.64360174560548 1151.7100438690186,166.60760174560548 zM1259.5600438690185,166.51860174560548 C1259.3200438690185,166.46560174560548 1259.1500438690186,166.42060174560547 1258.9900438690186,166.38560174560547 C1259.0400438690185,166.47460174560547 1259.0800438690185,166.55460174560548 1259.1300438690187,166.64360174560548 C1259.2500438690186,166.60760174560548 1259.3600438690185,166.57260174560548 1259.5600438690185,166.51860174560548 zM1415.8900438690187,167.31060174560548 C1415.8400438690185,167.22160174560548 1415.8300438690185,167.08860174560547 1415.7400438690186,167.06160174560546 C1415.6700438690186,167.03460174560547 1415.5100438690185,167.11460174560546 1415.3900438690187,167.14160174560547 C1415.4400438690186,167.23060174560547 1415.4500438690186,167.35560174560547 1415.5400438690185,167.39060174560547 C1415.6100438690185,167.41760174560548 1415.7700438690185,167.33760174560547 1415.8800438690187,167.31060174560548 H1415.8900438690187 zM1020.5000438690186,168.48560174560546 C1020.5400438690185,168.58360174560548 1020.5400438690185,168.71660174560546 1020.6300438690187,168.77060174560546 C1020.7200438690186,168.82360174560546 1020.9000438690186,168.78760174560546 1021.0400438690185,168.78760174560546 C1020.9800438690186,168.62760174560546 1020.9200438690186,168.47660174560548 1020.8500438690185,168.31660174560548 C1020.7400438690186,168.36960174560548 1020.6200438690184,168.43160174560546 1020.5100438690185,168.48560174560546 H1020.5000438690186 zM1412.6900438690186,164.45460174560546 C1412.7600438690185,164.27660174560546 1412.8100438690185,164.14260174560548 1412.8700438690184,164.01860174560548 C1412.7500438690186,164.05360174560548 1412.6300438690187,164.08960174560548 1412.5000438690186,164.12460174560547 C1412.5500438690185,164.21360174560547 1412.6000438690185,164.30260174560547 1412.6900438690186,164.45460174560546 zM1148.0700438690185,165.46860174560547 L1148.2400438690186,165.29060174560547 L1147.9900438690186,165.25560174560547 L1148.0700438690185,165.46860174560547 zM1472.4600438690186,162.07860174560548 C1472.3400438690185,162.07860174560548 1472.2000438690186,162.09660174560548 1472.0800438690185,162.10460174560546 C1472.1500438690186,162.23860174560548 1472.2200438690186,162.37160174560546 1472.3100438690185,162.49660174560546 C1472.4200438690186,162.44360174560546 1472.5800438690185,162.39860174560548 1472.6100438690185,162.33660174560546 C1472.6300438690187,162.26560174560547 1472.5200438690185,162.16760174560548 1472.4600438690186,162.07860174560548 zM1186.1200438690184,165.32660174560547 L1185.8400438690185,165.42460174560546 L1186.1100438690185,165.53060174560548 V165.32660174560547 H1186.1200438690184 z" fill="#FFC105" id="svg_25" class=""/></g></svg>