<svg width="1481" height="348" viewBox="0 0 1481 348" fill="none" xmlns="http://www.w3.org/2000/svg">
<g filter="url(#filter0_d_266_31140)">
<path d="M6.13529 120.45C3.63778 120.45 3.47128 116.787 6.13529 115.455C16.2918 110.46 27.7803 84.6525 34.9398 65.172C45.5958 36.3675 55.0863 11.8923 46.9278 8.89533C43.7643 7.72983 44.4303 3.90033 46.9278 3.90033H73.7343C75.8988 3.90033 77.8968 5.39884 78.5628 7.56334C82.7253 19.7178 94.0473 50.853 98.2098 62.175C106.368 84.6525 116.358 111.292 124.683 115.455C127.347 116.787 127.181 120.45 124.683 120.45H84.2238C81.7263 120.45 81.7263 116.787 84.2238 115.455C88.0533 113.457 84.2238 100.969 78.8958 86.3175H35.1063C29.7783 100.303 25.6158 113.124 29.9448 115.455C32.4423 116.787 32.4423 120.45 29.9448 120.45H6.13529ZM43.2648 65.172C41.9328 69.168 40.1013 73.497 38.4363 77.9925H75.7323C69.4053 61.176 63.4113 44.3595 57.4173 27.3768C52.0893 38.532 47.7603 52.518 43.2648 65.172Z" fill="#351010"/>
</g>
<g filter="url(#filter1_d_266_31140)">
<path d="M134.278 8.89533C132.113 7.56333 131.78 3.90033 134.278 3.90033H185.227C205.706 3.90033 230.015 8.72884 230.015 31.7058C230.015 46.524 218.527 54.3495 206.372 57.846C222.19 61.3425 238.34 69.3345 238.34 86.9835C238.34 113.956 212.2 120.45 185.227 120.45H134.278C131.78 120.45 132.113 116.787 134.278 115.455C140.938 111.459 140.938 88.6485 140.938 62.508C140.938 36.3675 141.77 13.3908 134.278 8.89533ZM169.243 60.51C169.243 61.0095 169.243 61.6755 169.243 62.175C169.243 88.3155 167.911 115.455 185.227 115.455C201.377 115.455 210.035 100.303 210.035 88.6485C210.035 66.171 198.214 60.843 169.243 60.51ZM185.227 8.89533C168.41 8.89533 169.076 31.5393 169.243 55.515C193.885 55.182 201.71 48.855 201.71 32.3718C201.71 20.5503 197.048 8.89533 185.227 8.89533Z" fill="#351010"/>
</g>
<g filter="url(#filter2_d_266_31140)">
<path d="M246.941 101.969C242.612 90.9795 250.771 81.3225 259.762 81.3225C264.923 81.3225 270.418 84.486 274.081 92.478C279.742 104.966 283.571 118.785 298.889 118.785C307.88 118.785 316.538 110.46 316.538 103.134C316.538 72.165 249.106 67.836 249.106 29.0418C249.106 14.3898 264.257 0.570312 289.898 0.570312C316.039 0.570312 330.857 6.73082 338.516 18.8853C346.841 32.2053 335.852 43.194 325.862 43.194C321.866 43.194 317.87 41.3625 315.539 37.2C306.215 20.5503 298.39 5.56532 288.566 5.56532C280.574 5.56532 277.411 12.5583 277.411 18.2193C277.411 51.186 345.01 59.3445 345.01 92.478C345.01 112.458 321.7 123.78 296.225 123.78C278.41 123.78 253.102 117.62 246.941 101.969Z" fill="#351010"/>
</g>
<g filter="url(#filter3_d_266_31140)">
<path d="M407.81 123.78C374.51 123.78 350.367 98.805 350.367 62.175C350.367 25.5453 374.51 0.570312 407.81 0.570312C441.11 0.570312 465.252 25.5453 465.252 62.175C465.252 98.805 441.11 123.78 407.81 123.78ZM384.5 9.89432C362.855 19.8843 371.18 52.185 381.17 74.163C389.828 92.9775 404.48 116.121 421.962 116.121C424.959 116.121 427.956 115.455 431.12 113.957C452.931 103.967 444.273 71.9985 434.45 50.187C425.958 31.3728 411.14 7.89632 393.491 7.89632C390.494 7.89632 387.497 8.56232 384.5 9.89432Z" fill="#351010"/>
</g>
<g filter="url(#filter4_d_266_31140)">
<path d="M475.411 120.45C472.913 120.45 473.246 116.787 475.411 115.455C482.737 111.126 482.404 84.6525 482.404 62.175C482.404 39.6975 483.07 13.3908 475.411 8.89533C473.246 7.56333 472.913 3.90033 475.411 3.90033H517.702C520.199 3.90033 520.199 7.39683 517.702 8.89533C510.376 13.5573 510.709 39.6975 510.709 62.175C510.709 84.6525 510.209 115.455 524.362 115.455C534.352 115.455 535.85 102.634 539.18 93.81C541.844 86.484 544.675 80.6565 551.335 80.6565C557.495 80.6565 560.492 86.484 560.492 91.812C560.492 112.624 559.493 120.45 548.171 120.45H475.411Z" fill="#351010"/>
</g>
<g filter="url(#filter5_d_266_31140)">
<path d="M563.354 8.89533C561.023 7.56333 560.857 3.90033 563.354 3.90033H605.645C608.143 3.90033 607.81 7.56333 605.645 8.89533C597.82 13.5573 598.652 39.6974 598.652 62.1749C598.652 94.1429 597.487 118.785 621.796 118.785C640.444 118.785 654.763 109.96 654.763 62.1749C654.763 39.6974 655.595 13.5573 647.77 8.89533C645.605 7.56333 645.272 3.90033 647.77 3.90033H670.081C672.578 3.90033 672.412 7.56333 670.081 8.89533C663.587 12.8913 663.088 39.6974 663.088 72.4979C663.088 104.299 647.27 123.78 621.629 123.78C586.498 123.78 570.347 104.299 570.347 72.4979C570.347 39.6974 569.848 12.8913 563.354 8.89533Z" fill="#351010"/>
</g>
<g filter="url(#filter6_d_266_31140)">
<path d="M676.133 32.5383C676.133 11.7258 677.132 3.90033 688.454 3.90033H768.374C779.696 3.90033 780.695 11.7258 780.695 32.5383C780.695 37.866 777.698 43.6935 771.537 43.6935C764.877 43.6935 762.047 37.866 759.383 30.5403C756.053 21.7158 754.554 8.89533 744.564 8.89533C741.234 8.89533 740.901 45.6915 740.901 65.172C740.901 84.6525 741.234 110.46 749.559 115.455C751.724 116.787 752.057 120.45 749.559 120.45H707.268C704.771 120.45 705.104 116.787 707.268 115.455C715.593 110.46 715.926 84.6525 715.926 65.172C715.926 45.6915 715.593 8.89533 712.263 8.89533C702.273 8.89533 700.775 21.7158 697.445 30.5403C694.781 37.866 691.95 43.6935 685.29 43.6935C679.13 43.6935 676.133 37.866 676.133 32.5383Z" fill="#351010"/>
</g>
<g filter="url(#filter7_d_266_31140)">
<path d="M830.179 101.969C825.85 90.9795 834.009 81.3225 843 81.3225C848.161 81.3225 853.656 84.486 857.319 92.478C862.98 104.966 866.809 118.785 882.127 118.785C891.118 118.785 899.776 110.46 899.776 103.134C899.776 72.165 832.344 67.836 832.344 29.0418C832.344 14.3898 847.495 0.570312 873.136 0.570312C899.277 0.570312 914.094 6.73082 921.753 18.8853C930.078 32.2053 919.089 43.194 909.099 43.194C905.104 43.194 901.108 41.3625 898.777 37.2C889.453 20.5503 881.628 5.56532 871.804 5.56532C863.812 5.56532 860.649 12.5583 860.649 18.2193C860.649 51.186 928.246 59.3445 928.246 92.478C928.246 112.458 904.938 123.78 879.463 123.78C861.648 123.78 836.34 117.62 830.179 101.969Z" fill="#351010"/>
</g>
<g filter="url(#filter8_d_266_31140)">
<path d="M936.704 120.45C934.206 120.45 934.539 116.787 936.704 115.455C943.53 111.292 943.697 84.6525 943.697 62.175C943.697 39.6975 944.529 13.5573 936.704 8.89533C934.539 7.56333 934.206 3.90033 936.704 3.90033H978.995C981.492 3.90033 981.326 7.56333 978.995 8.89533C971.669 13.3908 972.002 39.6975 972.002 62.175C972.002 84.6525 971.169 110.793 978.995 115.455C981.159 116.787 981.492 120.45 978.995 120.45H936.704Z" fill="#351010"/>
</g>
<g filter="url(#filter9_d_266_31140)">
<path d="M989.215 62.175C989.215 25.5453 1013.36 0.570312 1046.66 0.570312C1065.47 0.570312 1081.96 6.73082 1089.61 18.8853C1098.11 32.2053 1087.45 43.0275 1077.46 43.0275C1073.3 43.0275 1069.47 41.196 1066.8 37.2C1058.15 23.7138 1051.49 6.89732 1032.34 6.89732C1017.85 6.89732 1009.53 18.8853 1009.53 36.534C1009.53 59.0115 1030.17 109.461 1059.31 109.461C1073.13 109.461 1085.62 100.137 1091.45 91.479C1092.44 89.9805 1093.78 89.3145 1094.94 89.3145C1097.27 89.3145 1099.27 91.812 1097.44 95.475C1092.28 106.131 1072.96 123.78 1046.66 123.78C1013.36 123.78 989.215 98.805 989.215 62.175Z" fill="#351010"/>
</g>
<g filter="url(#filter10_d_266_31140)">
<path d="M1104.66 120.45C1102.17 120.45 1102.5 116.787 1104.66 115.455C1111.49 111.292 1111.66 84.6525 1111.66 62.175C1111.66 39.6975 1112.49 13.5573 1104.66 8.89533C1102.5 7.56333 1102.17 3.90033 1104.66 3.90033H1146.96C1149.45 3.90033 1149.29 7.56333 1146.96 8.89533C1139.96 13.2243 1139.96 37.866 1139.96 59.6775H1178.26C1178.26 37.866 1178.76 13.3908 1171.26 8.89533C1169.1 7.56333 1168.77 3.90033 1171.26 3.90033H1213.56C1216.05 3.90033 1215.89 7.56333 1213.56 8.89533C1206.23 13.3908 1206.56 39.6975 1206.56 62.175C1206.56 84.6525 1205.73 110.793 1213.56 115.455C1215.72 116.787 1216.05 120.45 1213.56 120.45H1171.26C1168.77 120.45 1169.1 116.787 1171.26 115.455C1177.76 111.459 1178.26 86.6505 1178.26 64.6725H1139.96C1139.96 86.484 1139.46 110.959 1146.96 115.455C1149.12 116.787 1149.45 120.45 1146.96 120.45H1104.66Z" fill="#351010"/>
</g>
<g filter="url(#filter11_d_266_31140)">
<path d="M1223.85 120.45C1221.35 120.45 1221.69 116.787 1223.85 115.455C1231.18 111.126 1230.84 84.6525 1230.84 62.175C1230.84 39.6975 1231.51 13.3908 1223.85 8.89533C1221.69 7.56333 1221.35 3.90033 1223.85 3.90033H1290.79C1305.77 3.90033 1312.1 14.0568 1312.1 25.7118C1312.1 31.2063 1310.77 40.3635 1302.94 40.3635C1295.95 40.3635 1293.62 34.536 1291.62 29.0418C1287.62 18.3858 1285.29 8.89533 1272.8 8.89533C1259.32 9.06183 1259.15 36.7005 1259.15 58.6785C1265.64 57.0135 1269.97 53.184 1272.3 48.6885C1274.47 44.3595 1276.97 42.3615 1278.8 42.3615C1280.8 42.3615 1282.29 44.526 1282.29 48.6885V75.828C1282.29 79.9905 1280.8 81.9885 1278.8 81.9885C1276.97 81.9885 1274.47 79.9905 1272.3 75.828C1269.97 71.3325 1265.64 67.503 1259.15 65.838C1259.15 87.816 1259.32 115.455 1272.8 115.455C1285.46 115.455 1290.29 105.964 1294.28 95.3085C1296.28 89.814 1298.61 83.9865 1305.6 83.9865C1313.43 83.9865 1314.76 93.144 1314.76 98.6385C1314.76 110.293 1305.94 120.45 1290.95 120.45H1223.85Z" fill="#351010"/>
</g>
<g filter="url(#filter12_d_266_31140)">
<path d="M1323.2 8.89533C1321.03 7.56333 1320.7 3.90033 1323.2 3.90033H1374.14C1394.62 3.90033 1418.93 12.0588 1418.93 35.868C1418.93 55.0155 1394.29 68.0025 1382.14 68.0025H1376.81C1396.46 68.0025 1405.11 74.3295 1414.44 91.6455C1422.43 106.63 1425.93 113.124 1432.42 114.955C1435.92 115.954 1435.42 120.45 1432.09 120.45H1393.79C1391.29 120.45 1391.29 116.953 1393.63 115.455C1397.29 113.124 1391.96 100.636 1389.63 95.6415C1382.97 81.822 1379.14 69.501 1363.49 69.501H1358.16C1358.33 89.9805 1358.99 111.292 1365.49 115.455C1367.98 116.953 1367.98 120.45 1365.49 120.45H1323.2C1320.7 120.45 1321.03 116.787 1323.2 115.455C1330.19 111.292 1329.86 84.6525 1329.86 62.175C1329.86 39.6975 1330.85 13.3908 1323.2 8.89533ZM1374.14 8.89533C1355.16 8.89533 1358.16 39.6975 1358.16 62.175C1358.16 63.0075 1358.16 63.6735 1358.16 64.506C1381.3 64.0065 1390.63 55.6815 1390.63 36.867C1390.63 20.2173 1384.63 8.89533 1374.14 8.89533Z" fill="#351010"/>
</g>
<g filter="url(#filter13_d_266_31140)">
<path d="M6.80126 230.895C4.63675 229.563 4.30375 225.9 6.80126 225.9H73.7344C88.7194 225.9 95.0464 236.056 95.0464 247.711C95.0464 253.206 93.7144 262.363 85.8889 262.363C78.8959 262.363 76.5649 256.536 74.5669 251.041C70.5709 240.385 68.2398 230.895 55.7523 230.895C42.9318 231.061 42.0993 256.036 42.0993 277.348C48.5928 275.683 52.9218 271.854 55.2529 267.358C57.4173 263.029 59.9149 261.031 61.7464 261.031C63.7443 261.031 65.2428 263.196 65.2428 267.358V294.498C65.2428 298.66 63.7443 300.658 61.7464 300.658C59.9149 300.658 57.4173 298.66 55.2529 294.498C52.9218 290.002 48.5928 286.173 42.0993 284.508C42.0993 306.819 41.5998 337.455 55.7523 337.455C58.2498 337.455 58.2498 342.45 55.7523 342.45H6.80126C4.30375 342.45 4.63675 338.787 6.80126 337.455C14.1273 333.126 13.7943 306.652 13.7943 284.175C13.7943 261.697 14.4603 235.39 6.80126 230.895Z" fill="#351010"/>
</g>
<g filter="url(#filter14_d_266_31140)">
<path d="M101.089 230.895C98.7576 229.563 98.5911 225.9 101.089 225.9H143.38C145.877 225.9 145.544 229.563 143.38 230.895C135.554 235.557 136.387 261.697 136.387 284.175C136.387 316.143 135.221 340.785 159.53 340.785C178.178 340.785 192.497 331.96 192.497 284.175C192.497 261.697 193.33 235.557 185.504 230.895C183.34 229.563 183.007 225.9 185.504 225.9H207.815C210.313 225.9 210.146 229.563 207.815 230.895C201.322 234.891 200.822 261.697 200.822 294.498C200.822 326.299 185.005 345.78 159.364 345.78C124.232 345.78 108.082 326.299 108.082 294.498C108.082 261.697 107.582 234.891 101.089 230.895Z" fill="#351010"/>
</g>
<g filter="url(#filter15_d_266_31140)">
<path d="M217.368 230.895C215.203 229.563 214.87 225.9 217.368 225.9H268.317C288.796 225.9 313.105 234.058 313.105 257.868C313.105 277.015 288.463 290.002 276.309 290.002H270.981C290.628 290.002 299.286 296.329 308.61 313.645C316.602 328.63 320.098 335.124 326.592 336.955C330.088 337.954 329.589 342.45 326.259 342.45H287.964C285.466 342.45 285.466 338.953 287.797 337.455C291.46 335.124 286.132 322.636 283.801 317.641C277.141 303.822 273.312 291.501 257.661 291.501H252.333C252.499 311.98 253.165 333.292 259.659 337.455C262.156 338.953 262.156 342.45 259.659 342.45H217.368C214.87 342.45 215.203 338.787 217.368 337.455C224.361 333.292 224.028 306.652 224.028 284.175C224.028 261.697 225.027 235.39 217.368 230.895ZM268.317 230.895C249.336 230.895 252.333 261.697 252.333 284.175C252.333 285.007 252.333 285.673 252.333 286.506C275.476 286.006 284.8 277.681 284.8 258.867C284.8 242.217 278.806 230.895 268.317 230.895Z" fill="#351010"/>
</g>
<g filter="url(#filter16_d_266_31140)">
<path d="M380.614 342.45C378.116 342.45 378.449 338.787 380.614 337.455C387.44 333.292 387.607 306.652 387.607 284.175C387.607 261.697 388.439 235.557 380.614 230.895C378.449 229.563 378.116 225.9 380.614 225.9H422.905C425.402 225.9 425.236 229.563 422.905 230.895C415.912 235.224 415.912 259.033 415.912 280.678C418.409 277.515 429.065 263.529 431.563 260.032C442.052 244.714 449.545 232.393 444.883 230.895C442.219 230.062 442.552 225.9 445.049 225.9H470.524C473.021 225.9 473.854 229.563 470.524 230.895C462.365 234.225 451.543 246.546 439.222 261.864C433.727 268.857 423.737 281.344 423.737 281.344H433.061C434.726 281.344 436.558 282.343 437.723 284.008C441.719 289.003 450.044 299.659 454.706 305.82C466.694 321.304 477.85 334.624 484.676 337.455C487.673 338.787 487.174 342.45 484.676 342.45H442.385C439.888 342.45 439.388 338.454 442.385 337.455C448.546 335.124 438.056 322.803 428.399 308.983C425.069 304.488 420.074 297.495 415.912 291.667C415.912 312.147 415.912 333.292 422.905 337.455C425.069 338.787 425.402 342.45 422.905 342.45H380.614Z" fill="#351010"/>
</g>
<g filter="url(#filter17_d_266_31140)">
<path d="M493.458 342.45C490.96 342.45 491.293 338.787 493.458 337.455C500.284 333.292 500.451 306.652 500.451 284.175C500.451 261.697 501.283 235.557 493.458 230.895C491.293 229.563 490.96 225.9 493.458 225.9H535.749C538.246 225.9 538.08 229.563 535.749 230.895C528.422 235.39 528.755 261.697 528.755 284.175C528.755 306.652 527.923 332.793 535.749 337.455C537.913 338.787 538.246 342.45 535.749 342.45H493.458Z" fill="#351010"/>
</g>
<g filter="url(#filter18_d_266_31140)">
<path d="M546.137 342.45C543.64 342.45 543.973 338.787 546.137 337.455C554.462 332.46 554.795 308.817 554.795 284.341C554.795 259.866 554.462 235.89 546.137 230.895C543.973 229.563 543.64 225.9 546.137 225.9H571.945C573.443 225.9 574.942 226.732 575.774 228.064L629.221 317.475C630.386 307.984 630.386 296.829 630.386 287.172C630.386 267.691 630.053 235.89 621.728 230.895C619.564 229.563 619.231 225.9 621.728 225.9H644.039C646.537 225.9 646.371 229.563 644.039 230.895C635.714 235.89 635.381 267.691 635.381 287.172C635.381 306.652 636.214 331.627 642.208 335.29C646.37 337.954 644.705 342.45 642.208 342.45H618.398C616.9 342.45 615.401 341.617 614.569 340.285L560.956 250.708C559.79 260.365 559.79 272.353 559.79 284.341C559.79 308.817 560.123 332.46 568.448 337.455C570.613 338.787 570.946 342.45 568.448 342.45H546.137Z" fill="#351010"/>
</g>
<g filter="url(#filter19_d_266_31140)">
<path d="M654.43 342.45C651.933 342.45 652.266 338.787 654.43 337.455C661.09 333.459 661.09 310.648 661.09 284.508C661.09 258.367 661.923 235.39 654.43 230.895C652.266 229.563 651.933 225.9 654.43 225.9H705.379C739.678 225.9 761.323 249.709 761.323 283.675C761.323 317.641 740.011 342.45 705.379 342.45H654.43ZM705.379 230.895C687.064 230.895 689.395 258.034 689.395 284.175C689.395 310.315 688.063 337.455 705.379 337.455C722.362 337.455 733.018 317.641 733.018 284.341C733.018 251.041 722.362 230.895 705.379 230.895Z" fill="#351010"/>
</g>
<g filter="url(#filter20_d_266_31140)">
<path d="M765.969 342.45C763.472 342.45 763.805 338.787 765.969 337.455C773.295 333.126 772.962 306.652 772.962 284.175C772.962 261.697 773.628 235.39 765.969 230.895C763.805 229.563 763.472 225.9 765.969 225.9H832.902C847.887 225.9 854.214 236.056 854.214 247.711C854.214 253.206 852.882 262.363 845.057 262.363C838.064 262.363 835.733 256.536 833.735 251.041C829.739 240.385 827.408 230.895 814.92 230.895C801.434 231.061 801.267 258.7 801.267 280.678C807.761 279.013 812.09 275.184 814.421 270.688C816.585 266.359 819.083 264.361 820.914 264.361C822.912 264.361 824.411 266.526 824.411 270.688V297.828C824.411 301.99 822.912 303.988 820.914 303.988C819.083 303.988 816.585 301.99 814.421 297.828C812.09 293.332 807.761 289.503 801.267 287.838C801.267 309.816 801.434 337.455 814.92 337.455C827.574 337.455 832.403 327.964 836.399 317.308C838.397 311.814 840.728 305.986 847.721 305.986C855.546 305.986 856.878 315.144 856.878 320.638C856.878 332.293 848.054 342.45 833.069 342.45H765.969Z" fill="#351010"/>
</g>
<g filter="url(#filter21_d_266_31140)">
<path d="M865.317 230.895C863.152 229.563 862.819 225.9 865.317 225.9H916.268C936.747 225.9 961.056 234.058 961.056 257.868C961.056 277.015 936.414 290.002 924.26 290.002H918.932C938.579 290.002 947.237 296.329 956.561 313.645C964.553 328.63 968.049 335.124 974.543 336.955C978.039 337.954 977.54 342.45 974.21 342.45H935.915C933.417 342.45 933.417 338.953 935.748 337.455C939.411 335.124 934.083 322.636 931.752 317.641C925.092 303.822 921.263 291.501 905.61 291.501H900.282C900.448 311.98 901.114 333.292 907.61 337.455C910.107 338.953 910.107 342.45 907.61 342.45H865.317C862.819 342.45 863.152 338.787 865.317 337.455C872.31 333.292 871.977 306.652 871.977 284.175C871.977 261.697 872.976 235.39 865.317 230.895ZM916.268 230.895C897.285 230.895 900.282 261.697 900.282 284.175C900.282 285.007 900.282 285.673 900.282 286.506C923.427 286.006 932.751 277.681 932.751 258.867C932.751 242.217 926.757 230.895 916.268 230.895Z" fill="#351010"/>
</g>
<g filter="url(#filter22_d_266_31140)">
<path d="M117.827 203.551C106.481 194.051 125.305 190.847 132.425 192.139C140.067 193.525 143.465 204.829 141.283 209.944C138.556 216.339 132.01 215.425 117.827 203.551Z" fill="#351010"/>
</g>
<g filter="url(#filter23_d_266_31140)">
<path d="M156.325 204.182C148.852 194.305 160.263 188.007 167.976 189.78C172.261 189.971 180.7 206.563 173.754 211.564C169.032 214.963 165.667 216.527 156.325 204.182Z" fill="#351010"/>
</g>
<g filter="url(#filter24_d_266_31140)">
<path d="M1189.52 146.526C1188.44 147.217 1187.24 147.818 1186.34 148.608C1185.47 149.381 1184.93 150.353 1184.09 151.399C1186.15 151.563 1188.41 151.735 1190.78 151.925C1191.58 150.18 1192.23 148.567 1193.08 147.028C1193.37 146.492 1194.18 145.76 1194.82 145.727C1202.53 145.241 1210.25 144.871 1218 144.501C1218.36 144.484 1218.75 144.822 1219.37 145.101C1217.13 146.015 1215.08 146.847 1213.05 147.677L1213.19 147.62C1208.51 145.834 1205.17 147.282 1202.22 150.098C1204.41 150.698 1206.38 151.735 1208.26 149.497C1208.72 148.954 1210.85 149.159 1212.22 149.011C1213.99 150.542 1214.11 148.443 1215.12 148.32L1215.09 148.403C1219.27 148.007 1223.44 147.505 1227.64 147.258C1229.77 147.134 1232.37 148.238 1233.05 145.62C1233.12 145.365 1234.1 145.036 1234.62 145.069C1240.24 145.414 1246.09 144.558 1251.3 147.176C1252.78 147.917 1255.41 147.736 1257.45 147.554C1259.77 147.341 1262 146.566 1264.33 146.221C1265.12 146.106 1266.04 146.55 1266.72 147.439H1262.6C1261.5 150.402 1263.15 151.843 1267.83 152.189C1266.08 149.275 1268.75 149.011 1271.31 148.23C1277.14 146.467 1283.06 145.629 1289.38 145.999C1295.62 146.361 1296.32 147.052 1293.97 151.39C1297.96 152.617 1298.99 149.892 1301.44 148.427C1302.53 150.979 1304.88 150.74 1307.93 150.419C1313.59 149.826 1319.34 149.843 1325.05 149.522C1326.45 149.44 1327.83 149.036 1329.23 148.781C1329.13 148.492 1329.04 148.196 1328.95 147.909C1327.35 147.603 1325.76 147.291 1323.95 146.946C1327.03 145.135 1330.14 145.151 1333.15 147.118C1336.16 149.094 1339.31 150.287 1343.84 149.299C1343.19 148.435 1342.64 147.694 1341.61 146.311H1359.65C1356.98 147.208 1353.78 148.287 1350.63 149.349C1353.15 150.517 1361.02 150.007 1364.46 148.097C1366.62 146.896 1368.27 146.32 1370.79 147.628C1371.58 148.04 1373.64 147.686 1374.72 147.217C1379.5 145.16 1387.8 144.945 1391.66 147.406C1395.38 149.777 1399.76 149.218 1404.92 150.254C1401.94 146.731 1398.17 146.682 1393.39 146.822C1399.55 145.061 1407.98 146.262 1410.42 148.468C1413.07 147.514 1415.46 146.262 1418.1 145.826C1421.01 145.348 1423.89 145.941 1424.34 148.904C1426.83 148.196 1428.86 147.612 1430.89 147.028C1438.01 144.978 1445.27 145.595 1452.59 146.254C1457.96 146.739 1463.36 146.929 1468.75 147.282C1472.78 147.546 1478.04 152.32 1476.54 154.921C1475.79 156.23 1472.95 157.028 1470.84 157.761C1470.09 158.024 1468.73 157.465 1467.67 157.21C1458.12 154.889 1448.55 154.864 1438.65 156.287C1433.44 157.037 1427.85 156.452 1422.43 156.452C1400.91 156.477 1379.4 156.42 1357.88 156.543C1340.85 156.633 1323.83 157.119 1306.81 157.102C1290.58 157.086 1274.35 156.781 1258.14 156.287C1253.73 156.156 1249.4 154.83 1245.01 154.164C1243.52 153.933 1241.86 153.777 1240.42 154.032C1234.86 155.012 1229.06 154.559 1223.88 152.411C1222.33 156.139 1218.07 155.86 1214.06 155.695C1199.72 155.094 1185.5 155.695 1171.23 156.922C1161.19 157.786 1150.94 157.341 1140.79 157.465C1139.52 157.481 1138.24 157.325 1136.98 157.366C1125.54 157.737 1114.11 157.991 1102.69 158.559C1090.8 159.152 1078.95 160.098 1067.06 160.782C1058.51 161.276 1049.94 161.704 1041.38 161.951C1023.88 162.461 1006.35 162.708 988.855 163.309C980.65 163.588 972.51 164.61 964.314 164.996C951.004 165.63 937.675 166.272 924.345 166.47C897.1 166.881 869.86 166.98 842.619 167.236C832.747 167.325 822.876 167.441 813.015 167.622C807.801 167.713 803.791 165.729 800.315 163.416C798.736 162.363 797.361 159.095 798.021 158.708C800.542 157.201 803.916 155.588 806.994 155.563C831.191 155.39 855.399 156 879.584 155.547C915.734 154.872 951.855 153.514 987.976 152.452C1001.02 152.065 1014.08 151.81 1027.11 151.258C1039.18 150.748 1051.23 149.801 1063.29 149.292C1074.71 148.806 1086.15 148.674 1097.58 148.295C1100.26 148.205 1102.91 147.67 1105.59 147.48C1107.47 147.349 1109.39 147.455 1111.29 147.455C1111.59 147.884 1111.89 148.304 1112.19 148.731C1111.04 149.242 1109.88 149.76 1108.71 150.271C1108.63 150.443 1108.54 150.616 1108.46 150.789C1108.51 150.592 1108.58 150.394 1108.63 150.189C1110.3 150.048 1112.04 149.036 1113.05 151.275C1113.42 152.081 1116.46 152.246 1118.5 152.765C1119.16 151.291 1119.69 150.139 1120.2 148.978L1120.3 149.036C1119.35 148.789 1118.41 148.551 1117.47 148.304C1117.52 147.966 1117.57 147.628 1117.62 147.291C1125.21 147.184 1132.79 146.081 1141.07 148.082C1139.32 148.937 1138.12 149.514 1136.93 150.098C1133.46 150.205 1130.01 150.32 1126.54 150.427C1130.16 151.637 1133.79 153.012 1136.85 150.032C1138.14 150.419 1139.41 150.979 1140.75 151.135C1142.17 151.3 1143.7 151.069 1145.18 151.019C1144.8 149.843 1144.41 148.674 1144.04 147.497L1144.1 147.588H1152.82C1153.63 146.015 1159.18 145.538 1165.23 147.06C1164.51 148.567 1163.77 150.081 1163.04 151.596C1163.25 151.893 1163.47 152.197 1163.67 152.493C1167.84 148.171 1173.85 151.16 1178.91 149.991C1176.51 148.526 1172.53 150.402 1171.37 147.406C1171.39 147.406 1171.41 147.406 1171.44 147.406C1172.06 146.739 1172.74 145.464 1173.33 145.488C1178.74 145.727 1184.13 146.18 1189.53 146.575L1189.49 146.534L1189.52 146.526ZM1045.41 152.485C1045.87 152.871 1046.31 153.267 1046.77 153.654C1046.89 153.538 1047.03 153.424 1047.15 153.3C1046.53 153.053 1045.92 152.797 1045.29 152.55C1043.61 152.303 1041.92 152.065 1040.23 151.818C1040.23 152.221 1040.22 152.625 1040.21 153.036C1041.95 152.847 1043.68 152.666 1045.41 152.476V152.485ZM1249.98 148.583C1246.32 147.842 1243.14 147.2 1239.96 146.558C1244.85 149.374 1248.19 150.048 1249.98 148.583ZM1094.25 152.345C1094.1 152.024 1093.95 151.703 1093.81 151.382C1089.96 150.666 1088.03 153.103 1085.08 153.884C1085.3 154.247 1085.52 154.6 1085.73 154.963C1088.57 154.09 1091.41 153.217 1094.25 152.345ZM1385.15 148.089C1380.72 146.912 1380.4 147.027 1379.2 150.18C1381.28 149.448 1382.96 148.855 1385.15 148.089ZM1076.36 153.291C1076.54 152.946 1076.73 152.6 1076.91 152.254C1074.61 151.621 1072.3 150.979 1070 150.337L1069.59 151.135C1071.84 151.851 1074.09 152.567 1076.35 153.283L1076.36 153.291ZM1056.5 152.098C1056.1 152.394 1055.7 152.683 1055.3 152.979C1056.61 153.901 1057.94 154.815 1059.27 155.736C1059.67 155.415 1060.08 155.094 1060.48 154.773C1059.15 153.884 1057.82 152.987 1056.49 152.098H1056.5ZM1230.93 150.131C1231.03 150.386 1231.12 150.649 1231.22 150.905C1232.62 150.723 1234.02 150.542 1235.94 150.303C1233.42 147.785 1232.27 149.44 1230.93 150.131ZM1286.09 150.131C1286.57 149.925 1287.06 149.719 1287.54 149.514C1286.84 148.781 1286.15 148.057 1285.47 147.324C1285.1 147.489 1284.74 147.653 1284.37 147.826C1284.96 148.591 1285.52 149.366 1286.1 150.131H1286.09ZM1037.49 155.728C1037.62 155.374 1037.75 155.012 1037.86 154.657C1036.69 154.6 1035.52 154.543 1034.34 154.485C1034.29 154.756 1034.25 155.028 1034.22 155.3C1035.3 155.448 1036.39 155.588 1037.48 155.736L1037.49 155.728ZM1152.17 149.497C1151.9 149.727 1151.63 149.966 1151.36 150.196C1152.39 150.723 1153.42 151.258 1154.46 151.785C1154.68 151.563 1154.91 151.349 1155.14 151.127C1154.15 150.584 1153.16 150.04 1152.17 149.497ZM1443.49 149.406L1444.51 149.053C1444.21 148.616 1443.93 148.171 1443.63 147.736C1443.39 147.835 1442.92 147.974 1442.94 148.04C1443.07 148.501 1443.3 148.954 1443.49 149.406ZM1158.83 148.171C1158.78 148.443 1158.73 148.715 1158.67 148.995H1161.34C1161.34 148.789 1161.34 148.575 1161.34 148.369C1160.5 148.304 1159.67 148.238 1158.83 148.18V148.171ZM1124.83 153.283C1124.49 153.185 1124.15 153.086 1123.8 152.987C1123.53 153.432 1123.23 153.876 1122.94 154.321C1123.29 154.427 1123.94 154.657 1123.97 154.625C1124.31 154.197 1124.56 153.736 1124.83 153.283ZM1280.43 148.238V147.546C1280.02 147.571 1279.58 147.579 1279.18 147.645C1279.13 147.653 1279.14 148.156 1279.21 148.163C1279.61 148.23 1280.04 148.221 1280.43 148.238ZM1418.99 147.48C1418.71 147.694 1418.4 147.892 1418.18 148.131C1418.15 148.164 1418.65 148.542 1418.71 148.517C1419.04 148.378 1419.31 148.163 1419.59 147.983C1419.42 147.842 1419.24 147.694 1418.98 147.48H1418.99ZM1335.05 150.781C1334.59 151.078 1334.25 151.242 1334.06 151.464C1334 151.538 1334.34 151.933 1334.46 151.925C1334.84 151.908 1335.19 151.76 1335.55 151.661C1335.41 151.414 1335.27 151.176 1335.05 150.781ZM1321.56 151.365C1321.42 151.522 1321.16 151.703 1321.2 151.834C1321.24 151.982 1321.56 152.098 1321.75 152.222C1321.93 151.999 1322.11 151.777 1322.3 151.555C1322.05 151.489 1321.81 151.431 1321.56 151.365ZM1317.19 152.37C1317 152.493 1316.82 152.609 1316.63 152.732C1316.83 152.847 1317.03 153.044 1317.24 153.053C1317.43 153.053 1317.63 152.847 1317.82 152.732C1317.62 152.609 1317.41 152.493 1317.19 152.37ZM1347.16 152.814C1347.41 152.896 1347.66 153.036 1347.89 153.02C1348.05 153.012 1348.16 152.765 1348.3 152.625C1348.06 152.535 1347.81 152.378 1347.6 152.386C1347.44 152.394 1347.31 152.649 1347.16 152.806V152.814ZM1044.56 156.329C1044.14 156.213 1043.79 156.074 1043.44 156.049C1043.29 156.049 1043.11 156.304 1042.94 156.452C1043.26 156.593 1043.59 156.773 1043.95 156.848C1044.05 156.872 1044.28 156.576 1044.56 156.329ZM1004.44 153.859C1004.22 153.975 1004.01 154.082 1003.79 154.197C1004.04 154.296 1004.28 154.477 1004.53 154.477C1004.75 154.477 1004.96 154.271 1005.18 154.156C1004.94 154.057 1004.69 153.958 1004.45 153.859H1004.44ZM1240.87 150.682C1240.7 150.534 1240.56 150.295 1240.34 150.254C1240.16 150.221 1239.89 150.411 1239.67 150.501C1239.89 150.707 1240.11 150.905 1240.33 151.11C1240.52 150.97 1240.7 150.822 1240.87 150.682ZM1053.91 155.242C1053.81 155.185 1053.71 155.127 1053.6 155.069C1053.49 155.21 1053.36 155.341 1053.29 155.489C1053.27 155.514 1053.48 155.596 1053.58 155.654C1053.7 155.514 1053.8 155.374 1053.91 155.242ZM975.701 158.823C975.877 158.962 976.062 159.103 976.247 159.243C976.423 159.095 976.756 158.955 976.756 158.806C976.756 158.675 976.423 158.527 976.228 158.387C976.053 158.535 975.859 158.691 975.701 158.814V158.823ZM1280.27 151.11L1279.97 151.069L1280.06 151.266L1280.27 151.102V151.11ZM1106.91 153.407C1106.79 153.349 1106.68 153.283 1106.55 153.226C1106.47 153.382 1106.39 153.53 1106.32 153.686C1106.47 153.686 1106.65 153.728 1106.76 153.686C1106.85 153.646 1106.87 153.506 1106.91 153.407ZM1194.71 153.686H1195.09C1195.09 153.604 1195.09 153.481 1195.05 153.464C1194.94 153.432 1194.81 153.456 1194.67 153.456C1194.67 153.538 1194.7 153.612 1194.7 153.686H1194.71ZM1069.53 154.682C1069.39 154.822 1069.26 154.954 1069.14 155.094C1069.26 155.127 1069.46 155.218 1069.5 155.193C1069.66 155.077 1069.78 154.929 1069.91 154.79C1069.79 154.756 1069.66 154.716 1069.53 154.682ZM1169.29 154.6C1169.07 154.551 1168.92 154.509 1168.77 154.477C1168.81 154.559 1168.85 154.633 1168.9 154.716C1169.01 154.682 1169.11 154.65 1169.29 154.6ZM1313.9 155.333C1313.85 155.25 1313.84 155.127 1313.76 155.102C1313.7 155.077 1313.55 155.151 1313.44 155.176C1313.48 155.259 1313.49 155.374 1313.58 155.407C1313.64 155.432 1313.79 155.358 1313.89 155.333H1313.9ZM948.164 156.42C948.201 156.51 948.201 156.633 948.284 156.683C948.368 156.732 948.534 156.699 948.664 156.699C948.608 156.551 948.552 156.411 948.488 156.263C948.386 156.312 948.275 156.37 948.173 156.42H948.164ZM1310.94 152.691C1311 152.526 1311.05 152.402 1311.11 152.288C1311 152.32 1310.88 152.353 1310.76 152.386C1310.81 152.468 1310.86 152.55 1310.94 152.691ZM1066.17 153.629L1066.32 153.464L1066.09 153.432L1066.17 153.629ZM1366.23 150.493C1366.12 150.493 1365.99 150.51 1365.88 150.517C1365.94 150.641 1366.01 150.764 1366.09 150.88C1366.19 150.831 1366.34 150.789 1366.37 150.732C1366.38 150.666 1366.28 150.575 1366.23 150.493ZM1101.36 153.498L1101.1 153.588L1101.35 153.686V153.498H1101.36Z" fill="#FFC105"/>
</g>
<defs>
<filter id="filter0_d_266_31140" x="0.199219" y="3.90033" width="130.422" height="124.55" filterUnits="userSpaceOnUse" color-interpolation-filters="sRGB">
<feFlood flood-opacity="0" result="BackgroundImageFix"/>
<feColorMatrix in="SourceAlpha" type="matrix" values="0 0 0 0 0 0 0 0 0 0 0 0 0 0 0 0 0 0 127 0" result="hardAlpha"/>
<feOffset dy="4"/>
<feGaussianBlur stdDeviation="2"/>
<feComposite in2="hardAlpha" operator="out"/>
<feColorMatrix type="matrix" values="0 0 0 0 0 0 0 0 0 0 0 0 0 0 0 0 0 0 0.25 0"/>
<feBlend mode="normal" in2="BackgroundImageFix" result="effect1_dropShadow_266_31140"/>
<feBlend mode="normal" in="SourceGraphic" in2="effect1_dropShadow_266_31140" result="shape"/>
</filter>
<filter id="filter1_d_266_31140" x="128.527" y="3.90033" width="113.812" height="124.55" filterUnits="userSpaceOnUse" color-interpolation-filters="sRGB">
<feFlood flood-opacity="0" result="BackgroundImageFix"/>
<feColorMatrix in="SourceAlpha" type="matrix" values="0 0 0 0 0 0 0 0 0 0 0 0 0 0 0 0 0 0 127 0" result="hardAlpha"/>
<feOffset dy="4"/>
<feGaussianBlur stdDeviation="2"/>
<feComposite in2="hardAlpha" operator="out"/>
<feColorMatrix type="matrix" values="0 0 0 0 0 0 0 0 0 0 0 0 0 0 0 0 0 0 0.25 0"/>
<feBlend mode="normal" in2="BackgroundImageFix" result="effect1_dropShadow_266_31140"/>
<feBlend mode="normal" in="SourceGraphic" in2="effect1_dropShadow_266_31140" result="shape"/>
</filter>
<filter id="filter2_d_266_31140" x="241.746" y="0.570312" width="107.262" height="131.21" filterUnits="userSpaceOnUse" color-interpolation-filters="sRGB">
<feFlood flood-opacity="0" result="BackgroundImageFix"/>
<feColorMatrix in="SourceAlpha" type="matrix" values="0 0 0 0 0 0 0 0 0 0 0 0 0 0 0 0 0 0 127 0" result="hardAlpha"/>
<feOffset dy="4"/>
<feGaussianBlur stdDeviation="2"/>
<feComposite in2="hardAlpha" operator="out"/>
<feColorMatrix type="matrix" values="0 0 0 0 0 0 0 0 0 0 0 0 0 0 0 0 0 0 0.25 0"/>
<feBlend mode="normal" in2="BackgroundImageFix" result="effect1_dropShadow_266_31140"/>
<feBlend mode="normal" in="SourceGraphic" in2="effect1_dropShadow_266_31140" result="shape"/>
</filter>
<filter id="filter3_d_266_31140" x="346.367" y="0.570312" width="122.887" height="131.21" filterUnits="userSpaceOnUse" color-interpolation-filters="sRGB">
<feFlood flood-opacity="0" result="BackgroundImageFix"/>
<feColorMatrix in="SourceAlpha" type="matrix" values="0 0 0 0 0 0 0 0 0 0 0 0 0 0 0 0 0 0 127 0" result="hardAlpha"/>
<feOffset dy="4"/>
<feGaussianBlur stdDeviation="2"/>
<feComposite in2="hardAlpha" operator="out"/>
<feColorMatrix type="matrix" values="0 0 0 0 0 0 0 0 0 0 0 0 0 0 0 0 0 0 0.25 0"/>
<feBlend mode="normal" in2="BackgroundImageFix" result="effect1_dropShadow_266_31140"/>
<feBlend mode="normal" in="SourceGraphic" in2="effect1_dropShadow_266_31140" result="shape"/>
</filter>
<filter id="filter4_d_266_31140" x="469.66" y="3.90033" width="94.832" height="124.55" filterUnits="userSpaceOnUse" color-interpolation-filters="sRGB">
<feFlood flood-opacity="0" result="BackgroundImageFix"/>
<feColorMatrix in="SourceAlpha" type="matrix" values="0 0 0 0 0 0 0 0 0 0 0 0 0 0 0 0 0 0 127 0" result="hardAlpha"/>
<feOffset dy="4"/>
<feGaussianBlur stdDeviation="2"/>
<feComposite in2="hardAlpha" operator="out"/>
<feColorMatrix type="matrix" values="0 0 0 0 0 0 0 0 0 0 0 0 0 0 0 0 0 0 0.25 0"/>
<feBlend mode="normal" in2="BackgroundImageFix" result="effect1_dropShadow_266_31140"/>
<feBlend mode="normal" in="SourceGraphic" in2="effect1_dropShadow_266_31140" result="shape"/>
</filter>
<filter id="filter5_d_266_31140" x="557.543" y="3.90033" width="118.348" height="127.88" filterUnits="userSpaceOnUse" color-interpolation-filters="sRGB">
<feFlood flood-opacity="0" result="BackgroundImageFix"/>
<feColorMatrix in="SourceAlpha" type="matrix" values="0 0 0 0 0 0 0 0 0 0 0 0 0 0 0 0 0 0 127 0" result="hardAlpha"/>
<feOffset dy="4"/>
<feGaussianBlur stdDeviation="2"/>
<feComposite in2="hardAlpha" operator="out"/>
<feColorMatrix type="matrix" values="0 0 0 0 0 0 0 0 0 0 0 0 0 0 0 0 0 0 0.25 0"/>
<feBlend mode="normal" in2="BackgroundImageFix" result="effect1_dropShadow_266_31140"/>
<feBlend mode="normal" in="SourceGraphic" in2="effect1_dropShadow_266_31140" result="shape"/>
</filter>
<filter id="filter6_d_266_31140" x="672.133" y="3.90033" width="112.562" height="124.55" filterUnits="userSpaceOnUse" color-interpolation-filters="sRGB">
<feFlood flood-opacity="0" result="BackgroundImageFix"/>
<feColorMatrix in="SourceAlpha" type="matrix" values="0 0 0 0 0 0 0 0 0 0 0 0 0 0 0 0 0 0 127 0" result="hardAlpha"/>
<feOffset dy="4"/>
<feGaussianBlur stdDeviation="2"/>
<feComposite in2="hardAlpha" operator="out"/>
<feColorMatrix type="matrix" values="0 0 0 0 0 0 0 0 0 0 0 0 0 0 0 0 0 0 0.25 0"/>
<feBlend mode="normal" in2="BackgroundImageFix" result="effect1_dropShadow_266_31140"/>
<feBlend mode="normal" in="SourceGraphic" in2="effect1_dropShadow_266_31140" result="shape"/>
</filter>
<filter id="filter7_d_266_31140" x="824.984" y="0.570312" width="107.262" height="131.21" filterUnits="userSpaceOnUse" color-interpolation-filters="sRGB">
<feFlood flood-opacity="0" result="BackgroundImageFix"/>
<feColorMatrix in="SourceAlpha" type="matrix" values="0 0 0 0 0 0 0 0 0 0 0 0 0 0 0 0 0 0 127 0" result="hardAlpha"/>
<feOffset dy="4"/>
<feGaussianBlur stdDeviation="2"/>
<feComposite in2="hardAlpha" operator="out"/>
<feColorMatrix type="matrix" values="0 0 0 0 0 0 0 0 0 0 0 0 0 0 0 0 0 0 0.25 0"/>
<feBlend mode="normal" in2="BackgroundImageFix" result="effect1_dropShadow_266_31140"/>
<feBlend mode="normal" in="SourceGraphic" in2="effect1_dropShadow_266_31140" result="shape"/>
</filter>
<filter id="filter8_d_266_31140" x="930.953" y="3.90033" width="53.8516" height="124.55" filterUnits="userSpaceOnUse" color-interpolation-filters="sRGB">
<feFlood flood-opacity="0" result="BackgroundImageFix"/>
<feColorMatrix in="SourceAlpha" type="matrix" values="0 0 0 0 0 0 0 0 0 0 0 0 0 0 0 0 0 0 127 0" result="hardAlpha"/>
<feOffset dy="4"/>
<feGaussianBlur stdDeviation="2"/>
<feComposite in2="hardAlpha" operator="out"/>
<feColorMatrix type="matrix" values="0 0 0 0 0 0 0 0 0 0 0 0 0 0 0 0 0 0 0.25 0"/>
<feBlend mode="normal" in2="BackgroundImageFix" result="effect1_dropShadow_266_31140"/>
<feBlend mode="normal" in="SourceGraphic" in2="effect1_dropShadow_266_31140" result="shape"/>
</filter>
<filter id="filter9_d_266_31140" x="985.215" y="0.570312" width="116.941" height="131.21" filterUnits="userSpaceOnUse" color-interpolation-filters="sRGB">
<feFlood flood-opacity="0" result="BackgroundImageFix"/>
<feColorMatrix in="SourceAlpha" type="matrix" values="0 0 0 0 0 0 0 0 0 0 0 0 0 0 0 0 0 0 127 0" result="hardAlpha"/>
<feOffset dy="4"/>
<feGaussianBlur stdDeviation="2"/>
<feComposite in2="hardAlpha" operator="out"/>
<feColorMatrix type="matrix" values="0 0 0 0 0 0 0 0 0 0 0 0 0 0 0 0 0 0 0.25 0"/>
<feBlend mode="normal" in2="BackgroundImageFix" result="effect1_dropShadow_266_31140"/>
<feBlend mode="normal" in="SourceGraphic" in2="effect1_dropShadow_266_31140" result="shape"/>
</filter>
<filter id="filter10_d_266_31140" x="1098.91" y="3.90033" width="120.453" height="124.55" filterUnits="userSpaceOnUse" color-interpolation-filters="sRGB">
<feFlood flood-opacity="0" result="BackgroundImageFix"/>
<feColorMatrix in="SourceAlpha" type="matrix" values="0 0 0 0 0 0 0 0 0 0 0 0 0 0 0 0 0 0 127 0" result="hardAlpha"/>
<feOffset dy="4"/>
<feGaussianBlur stdDeviation="2"/>
<feComposite in2="hardAlpha" operator="out"/>
<feColorMatrix type="matrix" values="0 0 0 0 0 0 0 0 0 0 0 0 0 0 0 0 0 0 0.25 0"/>
<feBlend mode="normal" in2="BackgroundImageFix" result="effect1_dropShadow_266_31140"/>
<feBlend mode="normal" in="SourceGraphic" in2="effect1_dropShadow_266_31140" result="shape"/>
</filter>
<filter id="filter11_d_266_31140" x="1218.1" y="3.90033" width="100.66" height="124.55" filterUnits="userSpaceOnUse" color-interpolation-filters="sRGB">
<feFlood flood-opacity="0" result="BackgroundImageFix"/>
<feColorMatrix in="SourceAlpha" type="matrix" values="0 0 0 0 0 0 0 0 0 0 0 0 0 0 0 0 0 0 127 0" result="hardAlpha"/>
<feOffset dy="4"/>
<feGaussianBlur stdDeviation="2"/>
<feComposite in2="hardAlpha" operator="out"/>
<feColorMatrix type="matrix" values="0 0 0 0 0 0 0 0 0 0 0 0 0 0 0 0 0 0 0.25 0"/>
<feBlend mode="normal" in2="BackgroundImageFix" result="effect1_dropShadow_266_31140"/>
<feBlend mode="normal" in="SourceGraphic" in2="effect1_dropShadow_266_31140" result="shape"/>
</filter>
<filter id="filter12_d_266_31140" x="1317.45" y="3.90033" width="121.379" height="124.55" filterUnits="userSpaceOnUse" color-interpolation-filters="sRGB">
<feFlood flood-opacity="0" result="BackgroundImageFix"/>
<feColorMatrix in="SourceAlpha" type="matrix" values="0 0 0 0 0 0 0 0 0 0 0 0 0 0 0 0 0 0 127 0" result="hardAlpha"/>
<feOffset dy="4"/>
<feGaussianBlur stdDeviation="2"/>
<feComposite in2="hardAlpha" operator="out"/>
<feColorMatrix type="matrix" values="0 0 0 0 0 0 0 0 0 0 0 0 0 0 0 0 0 0 0.25 0"/>
<feBlend mode="normal" in2="BackgroundImageFix" result="effect1_dropShadow_266_31140"/>
<feBlend mode="normal" in="SourceGraphic" in2="effect1_dropShadow_266_31140" result="shape"/>
</filter>
<filter id="filter13_d_266_31140" x="1.05078" y="225.9" width="97.9961" height="124.55" filterUnits="userSpaceOnUse" color-interpolation-filters="sRGB">
<feFlood flood-opacity="0" result="BackgroundImageFix"/>
<feColorMatrix in="SourceAlpha" type="matrix" values="0 0 0 0 0 0 0 0 0 0 0 0 0 0 0 0 0 0 127 0" result="hardAlpha"/>
<feOffset dy="4"/>
<feGaussianBlur stdDeviation="2"/>
<feComposite in2="hardAlpha" operator="out"/>
<feColorMatrix type="matrix" values="0 0 0 0 0 0 0 0 0 0 0 0 0 0 0 0 0 0 0.25 0"/>
<feBlend mode="normal" in2="BackgroundImageFix" result="effect1_dropShadow_266_31140"/>
<feBlend mode="normal" in="SourceGraphic" in2="effect1_dropShadow_266_31140" result="shape"/>
</filter>
<filter id="filter14_d_266_31140" x="95.2773" y="225.9" width="118.348" height="127.88" filterUnits="userSpaceOnUse" color-interpolation-filters="sRGB">
<feFlood flood-opacity="0" result="BackgroundImageFix"/>
<feColorMatrix in="SourceAlpha" type="matrix" values="0 0 0 0 0 0 0 0 0 0 0 0 0 0 0 0 0 0 127 0" result="hardAlpha"/>
<feOffset dy="4"/>
<feGaussianBlur stdDeviation="2"/>
<feComposite in2="hardAlpha" operator="out"/>
<feColorMatrix type="matrix" values="0 0 0 0 0 0 0 0 0 0 0 0 0 0 0 0 0 0 0.25 0"/>
<feBlend mode="normal" in2="BackgroundImageFix" result="effect1_dropShadow_266_31140"/>
<feBlend mode="normal" in="SourceGraphic" in2="effect1_dropShadow_266_31140" result="shape"/>
</filter>
<filter id="filter15_d_266_31140" x="211.617" y="225.9" width="121.379" height="124.55" filterUnits="userSpaceOnUse" color-interpolation-filters="sRGB">
<feFlood flood-opacity="0" result="BackgroundImageFix"/>
<feColorMatrix in="SourceAlpha" type="matrix" values="0 0 0 0 0 0 0 0 0 0 0 0 0 0 0 0 0 0 127 0" result="hardAlpha"/>
<feOffset dy="4"/>
<feGaussianBlur stdDeviation="2"/>
<feComposite in2="hardAlpha" operator="out"/>
<feColorMatrix type="matrix" values="0 0 0 0 0 0 0 0 0 0 0 0 0 0 0 0 0 0 0.25 0"/>
<feBlend mode="normal" in2="BackgroundImageFix" result="effect1_dropShadow_266_31140"/>
<feBlend mode="normal" in="SourceGraphic" in2="effect1_dropShadow_266_31140" result="shape"/>
</filter>
<filter id="filter16_d_266_31140" x="374.863" y="225.9" width="115.879" height="124.55" filterUnits="userSpaceOnUse" color-interpolation-filters="sRGB">
<feFlood flood-opacity="0" result="BackgroundImageFix"/>
<feColorMatrix in="SourceAlpha" type="matrix" values="0 0 0 0 0 0 0 0 0 0 0 0 0 0 0 0 0 0 127 0" result="hardAlpha"/>
<feOffset dy="4"/>
<feGaussianBlur stdDeviation="2"/>
<feComposite in2="hardAlpha" operator="out"/>
<feColorMatrix type="matrix" values="0 0 0 0 0 0 0 0 0 0 0 0 0 0 0 0 0 0 0.25 0"/>
<feBlend mode="normal" in2="BackgroundImageFix" result="effect1_dropShadow_266_31140"/>
<feBlend mode="normal" in="SourceGraphic" in2="effect1_dropShadow_266_31140" result="shape"/>
</filter>
<filter id="filter17_d_266_31140" x="487.707" y="225.9" width="53.8516" height="124.55" filterUnits="userSpaceOnUse" color-interpolation-filters="sRGB">
<feFlood flood-opacity="0" result="BackgroundImageFix"/>
<feColorMatrix in="SourceAlpha" type="matrix" values="0 0 0 0 0 0 0 0 0 0 0 0 0 0 0 0 0 0 127 0" result="hardAlpha"/>
<feOffset dy="4"/>
<feGaussianBlur stdDeviation="2"/>
<feComposite in2="hardAlpha" operator="out"/>
<feColorMatrix type="matrix" values="0 0 0 0 0 0 0 0 0 0 0 0 0 0 0 0 0 0 0.25 0"/>
<feBlend mode="normal" in2="BackgroundImageFix" result="effect1_dropShadow_266_31140"/>
<feBlend mode="normal" in="SourceGraphic" in2="effect1_dropShadow_266_31140" result="shape"/>
</filter>
<filter id="filter18_d_266_31140" x="540.387" y="225.9" width="109.465" height="124.55" filterUnits="userSpaceOnUse" color-interpolation-filters="sRGB">
<feFlood flood-opacity="0" result="BackgroundImageFix"/>
<feColorMatrix in="SourceAlpha" type="matrix" values="0 0 0 0 0 0 0 0 0 0 0 0 0 0 0 0 0 0 127 0" result="hardAlpha"/>
<feOffset dy="4"/>
<feGaussianBlur stdDeviation="2"/>
<feComposite in2="hardAlpha" operator="out"/>
<feColorMatrix type="matrix" values="0 0 0 0 0 0 0 0 0 0 0 0 0 0 0 0 0 0 0.25 0"/>
<feBlend mode="normal" in2="BackgroundImageFix" result="effect1_dropShadow_266_31140"/>
<feBlend mode="normal" in="SourceGraphic" in2="effect1_dropShadow_266_31140" result="shape"/>
</filter>
<filter id="filter19_d_266_31140" x="648.68" y="225.9" width="116.645" height="124.55" filterUnits="userSpaceOnUse" color-interpolation-filters="sRGB">
<feFlood flood-opacity="0" result="BackgroundImageFix"/>
<feColorMatrix in="SourceAlpha" type="matrix" values="0 0 0 0 0 0 0 0 0 0 0 0 0 0 0 0 0 0 127 0" result="hardAlpha"/>
<feOffset dy="4"/>
<feGaussianBlur stdDeviation="2"/>
<feComposite in2="hardAlpha" operator="out"/>
<feColorMatrix type="matrix" values="0 0 0 0 0 0 0 0 0 0 0 0 0 0 0 0 0 0 0.25 0"/>
<feBlend mode="normal" in2="BackgroundImageFix" result="effect1_dropShadow_266_31140"/>
<feBlend mode="normal" in="SourceGraphic" in2="effect1_dropShadow_266_31140" result="shape"/>
</filter>
<filter id="filter20_d_266_31140" x="760.219" y="225.9" width="100.66" height="124.55" filterUnits="userSpaceOnUse" color-interpolation-filters="sRGB">
<feFlood flood-opacity="0" result="BackgroundImageFix"/>
<feColorMatrix in="SourceAlpha" type="matrix" values="0 0 0 0 0 0 0 0 0 0 0 0 0 0 0 0 0 0 127 0" result="hardAlpha"/>
<feOffset dy="4"/>
<feGaussianBlur stdDeviation="2"/>
<feComposite in2="hardAlpha" operator="out"/>
<feColorMatrix type="matrix" values="0 0 0 0 0 0 0 0 0 0 0 0 0 0 0 0 0 0 0.25 0"/>
<feBlend mode="normal" in2="BackgroundImageFix" result="effect1_dropShadow_266_31140"/>
<feBlend mode="normal" in="SourceGraphic" in2="effect1_dropShadow_266_31140" result="shape"/>
</filter>
<filter id="filter21_d_266_31140" x="859.566" y="225.9" width="121.379" height="124.55" filterUnits="userSpaceOnUse" color-interpolation-filters="sRGB">
<feFlood flood-opacity="0" result="BackgroundImageFix"/>
<feColorMatrix in="SourceAlpha" type="matrix" values="0 0 0 0 0 0 0 0 0 0 0 0 0 0 0 0 0 0 127 0" result="hardAlpha"/>
<feOffset dy="4"/>
<feGaussianBlur stdDeviation="2"/>
<feComposite in2="hardAlpha" operator="out"/>
<feColorMatrix type="matrix" values="0 0 0 0 0 0 0 0 0 0 0 0 0 0 0 0 0 0 0.25 0"/>
<feBlend mode="normal" in2="BackgroundImageFix" result="effect1_dropShadow_266_31140"/>
<feBlend mode="normal" in="SourceGraphic" in2="effect1_dropShadow_266_31140" result="shape"/>
</filter>
<filter id="filter22_d_266_31140" x="110.273" y="191.865" width="35.6602" height="30.0105" filterUnits="userSpaceOnUse" color-interpolation-filters="sRGB">
<feFlood flood-opacity="0" result="BackgroundImageFix"/>
<feColorMatrix in="SourceAlpha" type="matrix" values="0 0 0 0 0 0 0 0 0 0 0 0 0 0 0 0 0 0 127 0" result="hardAlpha"/>
<feOffset dy="4"/>
<feGaussianBlur stdDeviation="2"/>
<feComposite in2="hardAlpha" operator="out"/>
<feColorMatrix type="matrix" values="0 0 0 0 0 0 0 0 0 0 0 0 0 0 0 0 0 0 0.25 0"/>
<feBlend mode="normal" in2="BackgroundImageFix" result="effect1_dropShadow_266_31140"/>
<feBlend mode="normal" in="SourceGraphic" in2="effect1_dropShadow_266_31140" result="shape"/>
</filter>
<filter id="filter23_d_266_31140" x="149.891" y="189.482" width="30.5078" height="32.5074" filterUnits="userSpaceOnUse" color-interpolation-filters="sRGB">
<feFlood flood-opacity="0" result="BackgroundImageFix"/>
<feColorMatrix in="SourceAlpha" type="matrix" values="0 0 0 0 0 0 0 0 0 0 0 0 0 0 0 0 0 0 127 0" result="hardAlpha"/>
<feOffset dy="4"/>
<feGaussianBlur stdDeviation="2"/>
<feComposite in2="hardAlpha" operator="out"/>
<feColorMatrix type="matrix" values="0 0 0 0 0 0 0 0 0 0 0 0 0 0 0 0 0 0 0.25 0"/>
<feBlend mode="normal" in2="BackgroundImageFix" result="effect1_dropShadow_266_31140"/>
<feBlend mode="normal" in="SourceGraphic" in2="effect1_dropShadow_266_31140" result="shape"/>
</filter>
<filter id="filter24_d_266_31140" x="793.852" y="144.5" width="686.953" height="31.1249" filterUnits="userSpaceOnUse" color-interpolation-filters="sRGB">
<feFlood flood-opacity="0" result="BackgroundImageFix"/>
<feColorMatrix in="SourceAlpha" type="matrix" values="0 0 0 0 0 0 0 0 0 0 0 0 0 0 0 0 0 0 127 0" result="hardAlpha"/>
<feOffset dy="4"/>
<feGaussianBlur stdDeviation="2"/>
<feComposite in2="hardAlpha" operator="out"/>
<feColorMatrix type="matrix" values="0 0 0 0 0 0 0 0 0 0 0 0 0 0 0 0 0 0 0.25 0"/>
<feBlend mode="normal" in2="BackgroundImageFix" result="effect1_dropShadow_266_31140"/>
<feBlend mode="normal" in="SourceGraphic" in2="effect1_dropShadow_266_31140" result="shape"/>
</filter>
</defs>
</svg>
