<svg width="407" height="126" viewBox="0 0 407 126" fill="none" xmlns="http://www.w3.org/2000/svg">
<path d="M245.539 107.4C264.205 70.9981 286.84 36.7216 308.083 1.47078C309.15 -0.280931 310.454 -0.467919 311.994 0.909833C327.44 14.7267 341.889 28.7601 355.34 43.01C373.442 62.1706 388.078 84.254 403.781 105.068C406.862 109.181 407.732 113.856 406.388 119.091C406.132 120.056 405.509 120.548 404.522 120.568C330.66 121.867 255.168 122.073 179.973 123.815C120.223 125.193 60.5827 125.921 1.05059 126C0.887939 126.002 0.72706 125.966 0.580966 125.895C0.434871 125.823 0.307684 125.719 0.209624 125.59C0.111564 125.46 0.0453918 125.31 0.0164935 125.15C-0.0124048 124.991 -0.00323308 124.827 0.0432569 124.671C5.43552 106.013 10.6796 87.3146 15.7756 68.5772C22.2345 44.7814 31.5969 22.9342 43.0332 1.61839C43.3363 1.05114 43.8486 0.623304 44.4621 0.425039C45.0755 0.226775 45.7423 0.273561 46.3218 0.555546C55.6447 5.00372 63.4369 11.489 69.6982 20.0114C88.5415 45.5392 104.629 72.8383 117.962 101.909C119.236 104.684 121.725 107.636 123.621 110.116C123.765 110.306 123.958 110.454 124.178 110.546C124.399 110.638 124.639 110.671 124.877 110.641C125.114 110.611 125.339 110.52 125.529 110.376C125.719 110.232 125.869 110.041 125.961 109.821C129.754 101.023 133.349 91.9793 136.746 82.6893C146.79 55.1441 160.211 28.7208 173.514 2.50409C173.82 1.89518 174.278 1.37547 174.844 0.994503C175.411 0.613536 176.067 0.383997 176.75 0.327756C177.433 0.271516 178.121 0.390463 178.747 0.673237C179.373 0.95601 179.918 1.39319 180.328 1.94314C187.834 11.9811 194.876 22.1272 201.453 32.3816C216.948 56.6202 228.977 82.3055 242.221 107.43C242.381 107.732 242.621 107.985 242.915 108.16C243.209 108.335 243.546 108.426 243.889 108.423C244.232 108.42 244.567 108.323 244.858 108.142C245.149 107.962 245.385 107.705 245.539 107.4Z" fill="#0152AB"/>
</svg>
